SplineFontDB: 3.2
FontName: wwise-regular
FullName: wwise Sans
FamilyName: wwise
Weight: Regular
Copyright: Copyright (c) 2022, willi
UComments: "Glyphs are created in Figma (https://figma.com/). This font was generated by FontForge (https://fontforge.org)."
Version: 001.000
DefaultBaseFilename: 400-regular
ItalicAngle: 0
UnderlinePosition: -204
UnderlineWidth: 102
Ascent: 1638
Descent: 410
InvalidEm: 0
LayerCount: 2
Layer: 0 0 "Back" 1
Layer: 1 0 "Fore" 0
XUID: [1021 86 -766541239 4208]
StyleMap: 0x0040
FSType: 0
OS2Version: 0
OS2_WeightWidthSlopeOnly: 0
OS2_UseTypoMetrics: 1
CreationTime: 1671043445
ModificationTime: 1671075870
PfmFamily: 33
TTFWeight: 400
TTFWidth: 5
LineGap: 184
VLineGap: 0
OS2TypoAscent: 0
OS2TypoAOffset: 1
OS2TypoDescent: 0
OS2TypoDOffset: 1
OS2TypoLinegap: 184
OS2WinAscent: 0
OS2WinAOffset: 1
OS2WinDescent: 0
OS2WinDOffset: 1
HheadAscent: 0
HheadAOffset: 1
HheadDescent: 0
HheadDOffset: 1
OS2Vendor: 'PfEd'
Lookup: 258 0 0 "Latin kerning" { "lower-apos" [307,30,0] "letter-apos" [307,30,0] "-x" [307,30,0] "f-" [307,30,0] "r-" [307,30,0] } ['kern' ('DFLT' <'dflt' > 'latn' <'dflt' > ) ]
MarkAttachClasses: 1
DEI: 91125
KernClass2: 2 6 "r-"
 1 r
 1 o
 1 e
 1 d
 1 g
 1 q
 0 {} 0 {} 0 {} 0 {} 0 {} 0 {} 0 {} -128 {} -128 {} -127 {} -127 {} -128 {}
KernClass2: 2 5 "f-"
 1 f
 1 o
 1 e
 1 d
 1 q
 0 {} 0 {} -80 {} 0 {} 0 {} 0 {} -133 {} -133 {} -162 {} -133 {}
KernClass2: 5 2 "-x"
 1 o
 1 e
 1 b
 1 p
 1 x
 0 {} 0 {} -80 {} -107 {} 0 {} -91 {} 0 {} -106 {} 0 {} -107 {}
KernClass2: 1 1 "letter-apos"
 0 {}
KernClass2: 1 1 "lower-apos"
 0 {}

StartChar: A
Encoding: 65 65 0
Width: 1486
VWidth: 2457
Flags: W
HStem: -0.480469 21G<71 251.032 1242.65 1422.68> 491.04 147.456<498.622 995.058> 1454.08 20G<652.823 840.855>
LayerCount: 2
Fore
SplineSet
660.823242188 1474.08007812 m 1
 832.85546875 1474.08007812 l 1
 1422.68066406 -0.48046875 l 1
 1250.6484375 -0.48046875 l 1
 1054.04003906 491.040039062 l 1
 439.640625 491.040039062 l 1
 243.032226562 -0.48046875 l 1
 71 -0.48046875 l 1
 660.823242188 1474.08007812 l 1
746.83984375 1259.04003906 m 1
 498.622070312 638.49609375 l 1
 995.057617188 638.49609375 l 1
 746.83984375 1259.04003906 l 1
EndSplineSet
EndChar

StartChar: B
Encoding: 66 66 1
Width: 1271
VWidth: 2457
Flags: W
HStem: -0.480469 147.457<319.033 889.505> 663.071 147.457<319.033 828.309> 1326.62 147.457<319.033 817.488>
VStem: 147 172.033<146.977 663.071 810.528 1326.62> 933.433 172.031<911.37 1216.57> 1007.16 172.032<257.202 558.609>
LayerCount: 2
Fore
SplineSet
147 1474.08007812 m 1xf4
 319.033203125 1474.08007812 l 1
 319.033203125 1474.08007812 441.912109375 1474.08007812 687.671875 1474.08007812 c 0
 933.432617188 1474.08007812 1105.46386719 1302.04785156 1105.46386719 1056.28808594 c 0xf8
 1105.46386719 810.528320312 933.432617188 736.799804688 835.12890625 736.799804688 c 1
 859.704101562 736.799804688 l 2
 958.0078125 736.799804688 1179.19238281 687.6484375 1179.19238281 417.311523438 c 0
 1179.19238281 146.9765625 982.584960938 -0.48046875 736.82421875 -0.48046875 c 2
 319.033203125 -0.48046875 l 1
 147 -0.48046875 l 1
 147 1474.08007812 l 1xf4
319.033203125 810.528320312 m 1
 319.033203125 810.528320312 613.944335938 810.528320312 687.671875 810.528320312 c 0
 761.400390625 810.528320312 933.432617188 859.680664062 933.432617188 1056.28808594 c 0
 933.432617188 1252.89648438 785.9765625 1326.62304688 687.671875 1326.62304688 c 0
 589.368164062 1326.62304688 319.033203125 1326.62304688 319.033203125 1326.62304688 c 1
 319.033203125 810.528320312 l 1
687.671875 663.071289062 m 0
 589.368164062 663.071289062 319.033203125 663.071289062 319.033203125 663.071289062 c 1
 319.033203125 146.9765625 l 1
 319.033203125 146.9765625 638.51953125 146.9765625 736.82421875 146.9765625 c 0
 835.12890625 146.9765625 1007.16015625 196.12890625 1007.16015625 417.311523438 c 0xf4
 1007.16015625 638.49609375 785.9765625 663.071289062 687.671875 663.071289062 c 0
EndSplineSet
EndChar

StartChar: C
Encoding: 67 67 2
Width: 1239
VWidth: 2457
Flags: W
HStem: -25.0557 147.456<553.458 915.228> 1351.2 147.456<553.458 915.228>
VStem: 86 172.032<496.792 976.809>
LayerCount: 2
Fore
SplineSet
86 736.799804688 m 0
 86 1056.28808594 282.607421875 1498.65625 724.9765625 1498.65625 c 0
 917.745117188 1498.65625 1063.84375 1394.74316406 1167.34375 1278.78417969 c 2
 1093.61523438 1154.59179688 l 1
 995.311523438 1277.47167969 885.368164062 1351.20019531 724.9765625 1351.20019531 c 0
 380.911132812 1351.20019531 258.032226562 933.408203125 258.032226562 736.799804688 c 0
 258.032226562 540.192382812 380.911132812 122.400390625 724.9765625 122.400390625 c 0
 885.368164062 122.400390625 995.311523438 196.12890625 1093.61523438 319.0078125 c 1
 1167.34375 194.81640625 l 2
 1063.84375 78.8564453125 917.745117188 -25.0556640625 724.9765625 -25.0556640625 c 0
 282.607421875 -25.0556640625 86 417.311523438 86 736.799804688 c 0
EndSplineSet
EndChar

StartChar: D
Encoding: 68 68 3
Width: 1382
VWidth: 2457
Flags: W
HStem: -0.480469 147.457<319.033 818.925> 1326.62 147.457<319.033 818.925>
VStem: 147 172.033<146.977 1326.62> 1105.46 172.032<479.895 993.705>
LayerCount: 2
Fore
SplineSet
147 1474.08007812 m 1
 687.671875 1474.08007812 l 2
 1007.16015625 1474.08007812 1277.49609375 1105.44042969 1277.49609375 736.799804688 c 0
 1277.49609375 368.16015625 1007.16015625 -0.48046875 687.671875 -0.48046875 c 2
 147 -0.48046875 l 1
 147 1474.08007812 l 1
319.033203125 146.9765625 m 1
 687.671875 146.9765625 l 2
 785.9765625 146.9765625 1105.46386719 269.85546875 1105.46386719 736.799804688 c 0
 1105.46386719 1203.74414062 785.9765625 1326.62304688 687.671875 1326.62304688 c 2
 319.033203125 1326.62304688 l 1
 319.033203125 146.9765625 l 1
EndSplineSet
EndChar

StartChar: E
Encoding: 69 69 4
Width: 1218
VWidth: 2457
Flags: W
HStem: -0.480469 147.457<319.033 1130.04> 663.071 147.457<319.033 982.585> 1326.62 147.457<319.033 1080.89>
VStem: 147 172.033<146.977 663.071 810.528 1326.62>
LayerCount: 2
Fore
SplineSet
147 -0.48046875 m 1
 147 1474.08007812 l 1
 1080.88867188 1474.08007812 l 1
 1080.88867188 1326.62304688 l 1
 319.033203125 1326.62304688 l 1
 319.033203125 810.528320312 l 1
 1031.73632812 810.528320312 l 1
 982.584960938 663.071289062 l 1
 319.033203125 663.071289062 l 1
 319.033203125 146.9765625 l 1
 1130.04101562 146.9765625 l 1
 1130.04101562 -0.48046875 l 1
 147 -0.48046875 l 1
EndSplineSet
EndChar

StartChar: F
Encoding: 70 70 5
Width: 1162
VWidth: 2457
Flags: W
HStem: -0.480469 21G<147 319.033> 663.071 147.457<319.033 982.585> 1326.62 147.457<319.033 1080.89>
VStem: 147 172.033<-0.480469 663.071 810.528 1326.62>
LayerCount: 2
Fore
SplineSet
147 -0.48046875 m 1
 147 1474.08007812 l 1
 1080.88867188 1474.08007812 l 1
 1080.88867188 1326.62304688 l 1
 319.033203125 1326.62304688 l 1
 319.033203125 810.528320312 l 1
 1031.73632812 810.528320312 l 1
 982.584960938 663.071289062 l 1
 319.033203125 663.071289062 l 1
 319.033203125 -0.48046875 l 1
 147 -0.48046875 l 1
EndSplineSet
EndChar

StartChar: G
Encoding: 71 71 6
Width: 1384
VWidth: 2457
Flags: W
HStem: -25.0557 147.456<567.846 957.543> 663.071 147.457<776.129 1095.62> 1351.2 147.456<567.846 979.279>
VStem: 88 172.032<475.742 997.858> 1095.62 172.032<245.28 663.071>
LayerCount: 2
Fore
SplineSet
88 736.799804688 m 0
 88 1105.44042969 284.608398438 1498.65625 776.12890625 1498.65625 c 0
 968.897460938 1498.65625 1139.57324219 1394.74316406 1243.07128906 1278.78417969 c 2
 1169.34472656 1154.59179688 l 1
 1071.04003906 1277.47167969 936.520507812 1351.20019531 776.12890625 1351.20019531 c 0
 382.912109375 1351.20019531 260.032226562 982.559570312 260.032226562 736.799804688 c 0
 260.032226562 491.040039062 382.912109375 122.400390625 776.12890625 122.400390625 c 0
 936.520507812 122.400390625 1095.61621094 245.280273438 1095.61621094 245.280273438 c 1
 1095.61621094 663.071289062 l 1
 726.9765625 663.071289062 l 1
 776.12890625 810.528320312 l 1
 1267.6484375 810.528320312 l 1
 1267.6484375 171.551757812 l 2
 1164.14941406 55.587890625 968.897460938 -25.0556640625 776.12890625 -25.0556640625 c 0
 284.608398438 -25.0556640625 88 368.16015625 88 736.799804688 c 0
EndSplineSet
EndChar

StartChar: H
Encoding: 72 72 7
Width: 1379
VWidth: 2457
Flags: W
HStem: -0.480469 21G<147 319.033 1056.31 1228.34> 663.071 147.457<319.033 1056.31> 1454.08 20G<147 319.033 1056.31 1228.34>
VStem: 147 172.033<-0.480469 663.071 810.528 1474.08> 1056.31 172.032<-0.480469 663.071 810.528 1474.08>
LayerCount: 2
Fore
SplineSet
147 -0.48046875 m 1
 147 1474.08007812 l 1
 319.033203125 1474.08007812 l 1
 319.033203125 810.528320312 l 1
 1056.3125 810.528320312 l 1
 1056.3125 1474.08007812 l 1
 1228.34472656 1474.08007812 l 1
 1228.34472656 -0.48046875 l 1
 1056.3125 -0.48046875 l 1
 1056.3125 663.071289062 l 1
 319.033203125 663.071289062 l 1
 319.033203125 -0.48046875 l 1
 147 -0.48046875 l 1
EndSplineSet
EndChar

StartChar: I
Encoding: 73 73 8
Width: 958
VWidth: 2457
Flags: W
HStem: -0.480469 147.457<105 399.912 571.944 866.855> 1326.62 147.457<105 399.912 571.944 817.704>
VStem: 399.912 172.032<146.977 1326.62>
LayerCount: 2
Fore
SplineSet
866.85546875 146.9765625 m 1
 866.85546875 -0.48046875 l 1
 105 -0.48046875 l 1
 105 146.9765625 l 1
 399.912109375 146.9765625 l 1
 399.912109375 1326.62304688 l 1
 105 1326.62304688 l 1
 105 1474.08007812 l 1
 866.85546875 1474.08007812 l 1
 817.704101562 1326.62304688 l 1
 571.944335938 1326.62304688 l 1
 571.944335938 146.9765625 l 1
 866.85546875 146.9765625 l 1
EndSplineSet
EndChar

StartChar: J
Encoding: 74 74 9
Width: 958
VWidth: 2457
Flags: W
HStem: -0.480469 147.457<105 399.912 571.944 866.855> 1326.62 147.457<105 399.912 571.944 817.704>
VStem: 399.912 172.032<146.977 1326.62>
LayerCount: 2
Fore
SplineSet
866.85546875 146.9765625 m 1
 866.85546875 -0.48046875 l 1
 105 -0.48046875 l 1
 105 146.9765625 l 1
 399.912109375 146.9765625 l 1
 399.912109375 1326.62304688 l 1
 105 1326.62304688 l 1
 105 1474.08007812 l 1
 866.85546875 1474.08007812 l 1
 817.704101562 1326.62304688 l 1
 571.944335938 1326.62304688 l 1
 571.944335938 146.9765625 l 1
 866.85546875 146.9765625 l 1
EndSplineSet
EndChar

StartChar: K
Encoding: 75 75 10
Width: 1434
VWidth: 2457
Flags: W
HStem: -0.480469 21G<147 319.033 1136.04 1375.8> 1454.08 20G<147 319.033 1084.82 1326.65>
VStem: 147 172.033<-0.480469 491.04 712.224 1474.08>
LayerCount: 2
Fore
SplineSet
147 -0.48046875 m 1
 147 1474.08007812 l 1
 319.033203125 1474.08007812 l 1
 319.033203125 712.223632812 l 1
 515.640625 902.688476562 l 1
 515.640625 908.83203125 l 1
 518.673828125 905.626953125 l 1
 1105.46386719 1474.08007812 l 1
 1326.6484375 1474.08007812 l 1
 626.809570312 791.309570312 l 1
 1375.80078125 -0.48046875 l 1
 1154.61621094 -0.48046875 l 1
 517.9765625 685.130859375 l 1
 319.033203125 491.040039062 l 1
 319.033203125 -0.48046875 l 1
 147 -0.48046875 l 1
EndSplineSet
EndChar

StartChar: L
Encoding: 76 76 11
Width: 1217
VWidth: 2457
Flags: W
HStem: -0.480469 147.457<319.033 1130.04> 1454.08 20G<147 319.033>
VStem: 147 172.033<146.977 1474.08>
LayerCount: 2
Fore
SplineSet
147 -0.48046875 m 1
 147 1474.08007812 l 1
 319.033203125 1474.08007812 l 1
 319.033203125 146.9765625 l 1
 1130.04101562 146.9765625 l 1
 1130.04101562 -0.48046875 l 1
 147 -0.48046875 l 1
EndSplineSet
EndChar

StartChar: M
Encoding: 77 77 12
Width: 1773
VWidth: 2457
Flags: W
HStem: -0.480469 21G<147 319.033 1449.53 1621.56> 1454.08 20G<147 306.764 1461.8 1621.56>
VStem: 147 172.033<-0.480469 1154.59> 1449.53 172.031<-0.480469 1154.59>
LayerCount: 2
Fore
SplineSet
147 1474.08007812 m 1
 294.456054688 1474.08007812 l 1
 884.28125 515.615234375 l 1
 1474.10449219 1474.08007812 l 1
 1621.56054688 1474.08007812 l 1
 1621.56054688 -0.48046875 l 1
 1449.52929688 -0.48046875 l 1
 1449.52929688 1154.59179688 l 1
 958.0078125 368.16015625 l 1
 810.552734375 368.16015625 l 1
 319.033203125 1154.59179688 l 1
 319.033203125 -0.48046875 l 1
 147 -0.48046875 l 1
 147 1474.08007812 l 1
EndSplineSet
EndChar

StartChar: N
Encoding: 78 78 13
Width: 1527
VWidth: 2457
Flags: W
HStem: -0.480469 21G<147 319.033 1212.93 1375.8> 1454.08 20G<147 309.873 1203.77 1375.8>
VStem: 147 172.033<-0.480469 1179.17> 1203.77 172.033<294.433 1474.08>
LayerCount: 2
Fore
SplineSet
147 -0.48046875 m 5
 147 1474.08007812 l 5
 294.456054688 1474.08007812 l 5
 1203.76757812 294.432617188 l 5
 1203.76757812 1474.08007812 l 5
 1375.80078125 1474.08007812 l 5
 1375.80078125 -0.48046875 l 5
 1228.34472656 -0.48046875 l 5
 319.033203125 1179.16796875 l 5
 319.033203125 -0.48046875 l 5
 147 -0.48046875 l 5
EndSplineSet
EndChar

StartChar: O
Encoding: 79 79 14
Width: 1470
VWidth: 2457
Flags: W
HStem: -25.0557 147.456<553.458 896.495> 1351.2 147.456<553.458 896.495>
VStem: 86 172.032<496.792 976.809> 1191.92 172.032<496.792 976.809>
LayerCount: 2
Fore
SplineSet
86 736.799804688 m 0
 86 1056.28808594 282.607421875 1498.65625 724.9765625 1498.65625 c 0
 1167.34375 1498.65625 1363.95117188 1056.28808594 1363.95117188 736.799804688 c 0
 1363.95117188 417.311523438 1167.34375 -25.0556640625 724.9765625 -25.0556640625 c 0
 282.607421875 -25.0556640625 86 417.311523438 86 736.799804688 c 0
724.9765625 1351.20019531 m 0
 380.911132812 1351.20019531 258.032226562 933.408203125 258.032226562 736.799804688 c 0
 258.032226562 540.192382812 380.911132812 122.400390625 724.9765625 122.400390625 c 0
 1069.04003906 122.400390625 1191.91894531 540.192382812 1191.91894531 736.799804688 c 0
 1191.91894531 933.408203125 1069.04003906 1351.20019531 724.9765625 1351.20019531 c 0
EndSplineSet
EndChar

StartChar: P
Encoding: 80 80 15
Width: 1197
VWidth: 2457
Flags: W
HStem: -0.480469 21G<147 319.033> 663.071 147.457<319.033 826.798> 1326.62 147.457<319.033 817.488>
VStem: 147 172.033<-0.480469 663.071 810.528 1326.62> 933.433 172.031<910.901 1216.57>
LayerCount: 2
Fore
SplineSet
147 -0.48046875 m 1
 147 1474.08007812 l 1
 319.033203125 1474.08007812 l 1
 687.671875 1474.08007812 l 2
 933.432617188 1474.08007812 1105.46386719 1302.04785156 1105.46386719 1056.28808594 c 0
 1105.46386719 810.528320312 884.28125 663.071289062 687.671875 663.071289062 c 2
 319.033203125 663.071289062 l 1
 319.033203125 146.9765625 l 1
 319.033203125 -0.48046875 l 1
 147 -0.48046875 l 1
687.671875 810.528320312 m 2
 761.400390625 810.528320312 933.432617188 859.680664062 933.432617188 1056.28808594 c 0
 933.432617188 1252.89648438 785.9765625 1326.62304688 687.671875 1326.62304688 c 2
 319.033203125 1326.62304688 l 1
 319.033203125 810.528320312 l 1
 687.671875 810.528320312 l 2
EndSplineSet
EndChar

StartChar: Q
Encoding: 81 81 16
Width: 1479
VWidth: 2457
Flags: W
HStem: -147.937 147.456<1127.96 1363.95> -25.0557 147.456<553.458 900.022> 1351.2 147.456<553.458 896.495>
VStem: 86 172.032<496.792 976.809> 1191.92 172.032<492.717 976.809>
LayerCount: 2
Fore
SplineSet
724.9765625 1498.65625 m 0x78
 1167.34375 1498.65625 1363.95117188 1056.28808594 1363.95117188 736.799804688 c 0
 1363.95117188 521.459960938 1274.6328125 250.2890625 1080.93945312 96.384765625 c 0
 1112.96679688 31.80859375 1201.234375 -0.48046875 1241.07128906 -0.48046875 c 2
 1413.10351562 -0.48046875 l 1
 1363.95117188 -147.936523438 l 1
 1241.07128906 -147.936523438 l 2xb8
 1097.77929688 -147.936523438 985.432617188 -75.7373046875 924.075195312 8.5302734375 c 0
 864.248046875 -13.013671875 797.95703125 -25.0556640625 724.9765625 -25.0556640625 c 0
 282.607421875 -25.0556640625 86 417.311523438 86 736.799804688 c 0
 86 1056.28808594 282.607421875 1498.65625 724.9765625 1498.65625 c 0x78
258.032226562 736.799804688 m 0
 258.032226562 540.192382812 380.911132812 122.400390625 724.9765625 122.400390625 c 0x78
 1069.04003906 122.400390625 1191.91894531 540.192382812 1191.91894531 736.799804688 c 0
 1191.91894531 933.408203125 1069.04003906 1351.20019531 724.9765625 1351.20019531 c 0
 380.911132812 1351.20019531 258.032226562 933.408203125 258.032226562 736.799804688 c 0
EndSplineSet
EndChar

StartChar: R
Encoding: 82 82 17
Width: 1223
VWidth: 2457
Flags: W
HStem: -0.480469 21G<147 319.033 944.674 1154.62> 663.071 147.457<319.033 515.641> 1326.62 147.457<319.033 817.488>
VStem: 147 172.033<-0.480469 663.071 810.528 1326.62> 933.433 172.031<914.404 1216.57>
LayerCount: 2
Fore
SplineSet
147 1474.08007812 m 1
 319.033203125 1474.08007812 l 1
 687.671875 1474.08007812 l 2
 933.432617188 1474.08007812 1105.46386719 1302.04785156 1105.46386719 1056.28808594 c 0
 1105.46386719 823.5390625 907.077148438 678.95703125 719.065429688 664.305664062 c 1
 1154.61621094 -0.48046875 l 1
 958.0078125 -0.48046875 l 1
 515.640625 663.071289062 l 1
 319.033203125 663.071289062 l 1
 319.033203125 146.9765625 l 1
 319.033203125 -0.48046875 l 1
 147 -0.48046875 l 1
 147 1474.08007812 l 1
319.033203125 810.528320312 m 1
 687.671875 810.528320312 l 2
 761.400390625 810.528320312 933.432617188 859.680664062 933.432617188 1056.28808594 c 0
 933.432617188 1252.89648438 785.9765625 1326.62304688 687.671875 1326.62304688 c 2
 319.033203125 1326.62304688 l 1
 319.033203125 810.528320312 l 1
EndSplineSet
EndChar

StartChar: S
Encoding: 83 83 18
Width: 1280
VWidth: 2457
Flags: W
HStem: -25.0557 147.456<422.396 884.635> 1351.2 147.456<432.496 822.545>
VStem: 107.152 172.032<947.048 1217.79> 1016.46 172.032<234.922 517.2>
LayerCount: 2
Fore
SplineSet
107.15234375 1080.86328125 m 0
 107.15234375 1182.55859375 152.208007812 1498.65625 623.248046875 1498.65625 c 0
 989.357421875 1498.65625 1139.34472656 1277.47167969 1139.34472656 1277.47167969 c 1
 1041.04003906 1130.015625 l 1
 1041.04003906 1130.015625 901.163085938 1351.20019531 623.248046875 1351.20019531 c 0
 469.088867188 1351.20019531 279.184570312 1269.68066406 279.184570312 1080.86328125 c 0
 279.184570312 892.046875 465.283203125 837.232421875 623.248046875 810.528320312 c 0
 781.213867188 783.82421875 1188.49609375 748.665039062 1188.49609375 392.736328125 c 0
 1188.49609375 174.58984375 1094.28710938 -25.0556640625 623.248046875 -25.0556640625 c 0
 263.544921875 -25.0556640625 58 196.12890625 58 196.12890625 c 1
 156.303710938 343.583984375 l 1
 156.303710938 343.583984375 366.317382812 122.400390625 623.248046875 122.400390625 c 0
 858.76953125 122.400390625 1016.46386719 176.948242188 1016.46386719 392.736328125 c 0
 1016.46386719 608.5234375 747.907226562 638.928710938 623.248046875 663.071289062 c 0
 498.588867188 687.215820312 107.15234375 724.934570312 107.15234375 1080.86328125 c 0
EndSplineSet
EndChar

StartChar: T
Encoding: 84 84 19
Width: 1178
VWidth: 2457
Flags: W
HStem: -0.480469 21G<502.367 674.4> 1326.62 147.457<60 502.367 674.4 1067.62>
VStem: 502.367 172.033<-0.480469 1326.62>
LayerCount: 2
Fore
SplineSet
674.400390625 1326.62304688 m 5
 674.400390625 -0.48046875 l 5
 502.3671875 -0.48046875 l 5
 502.3671875 1326.62304688 l 5
 60 1326.62304688 l 5
 60 1474.08007812 l 5
 1116.76757812 1474.08007812 l 5
 1067.61523438 1326.62304688 l 5
 674.400390625 1326.62304688 l 5
EndSplineSet
EndChar

StartChar: U
Encoding: 85 85 20
Width: 1399
VWidth: 2457
Flags: W
HStem: -25.0557 147.456<506.26 876.236> 1454.08 20G<126 298.032 1084.46 1256.5>
VStem: 126 172.032<342.913 1474.08> 1084.46 172.032<342.913 1474.08>
LayerCount: 2
Fore
SplineSet
126 540.192382812 m 2
 126 1474.08007812 l 1
 298.032226562 1474.08007812 l 1
 298.032226562 540.192382812 l 2
 298.032226562 368.16015625 396.336914062 122.400390625 691.248046875 122.400390625 c 0
 986.16015625 122.400390625 1084.46386719 368.16015625 1084.46386719 540.192382812 c 2
 1084.46386719 1474.08007812 l 1
 1256.49609375 1474.08007812 l 1
 1256.49609375 540.192382812 l 2
 1256.49609375 220.704101562 1010.73632812 -25.0556640625 691.248046875 -25.0556640625 c 0
 371.759765625 -25.0556640625 126 220.704101562 126 540.192382812 c 2
EndSplineSet
EndChar

StartChar: V
Encoding: 86 86 21
Width: 1372
VWidth: 2457
Flags: W
HStem: -0.480469 21G<582.338 781.326> 1454.08 20G<49 240.653 1123.01 1314.66>
LayerCount: 2
Fore
SplineSet
233.319335938 1474.08007812 m 1
 681.83203125 250.86328125 l 1
 1130.34375 1474.08007812 l 1
 1314.66308594 1474.08007812 l 1
 773.9921875 -0.48046875 l 1
 589.670898438 -0.48046875 l 1
 49 1474.08007812 l 1
 233.319335938 1474.08007812 l 1
EndSplineSet
EndChar

StartChar: W
Encoding: 87 87 22
Width: 1975
VWidth: 2457
Flags: W
HStem: -0.480469 21G<533.853 730.84 1234.94 1431.92> 1454.08 20G<49 239.849 1725.93 1916.78>
LayerCount: 2
Fore
SplineSet
233.319335938 1474.08007812 m 1
 632.680664062 250.86328125 l 1
 884.583984375 1105.44042969 l 1
 1081.19238281 1105.44042969 l 1
 1333.09570312 250.86328125 l 1
 1732.45605469 1474.08007812 l 1
 1916.77636719 1474.08007812 l 1
 1425.25585938 -0.48046875 l 1
 1240.93652344 -0.48046875 l 1
 982.887695312 859.680664062 l 1
 724.83984375 -0.48046875 l 1
 540.51953125 -0.48046875 l 1
 49 1474.08007812 l 1
 233.319335938 1474.08007812 l 1
EndSplineSet
EndChar

StartChar: X
Encoding: 88 88 23
Width: 1226
VWidth: 2457
Flags: W
HStem: -0.480469 21G<82 278.319 954.736 1151.06> 1454.08 20G<82 278.319 954.736 1151.06>
LayerCount: 2
Fore
SplineSet
266.319335938 1474.08007812 m 1
 616.528320312 890.400390625 l 1
 966.736328125 1474.08007812 l 1
 1151.05566406 1474.08007812 l 1
 708.688476562 736.799804688 l 1
 1151.05566406 -0.48046875 l 1
 966.736328125 -0.48046875 l 1
 616.528320312 583.200195312 l 1
 266.319335938 -0.48046875 l 1
 82 -0.48046875 l 1
 524.3671875 736.799804688 l 1
 82 1474.08007812 l 1
 266.319335938 1474.08007812 l 1
EndSplineSet
EndChar

StartChar: Y
Encoding: 89 89 24
Width: 1154
VWidth: 2457
Flags: W
HStem: -0.480469 21G<487.367 659.399> 1454.08 20G<45 240.145 918.524 1101.77>
VStem: 487.367 172.032<-0.480469 687.648>
LayerCount: 2
Fore
SplineSet
45 1474.08007812 m 1
 229.319335938 1474.08007812 l 1
 573.383789062 838.45703125 l 1
 929.736328125 1474.08007812 l 1
 1101.76757812 1474.08007812 l 1
 659.399414062 687.6484375 l 1
 659.399414062 -0.48046875 l 1
 487.3671875 -0.48046875 l 1
 487.3671875 687.6484375 l 1
 45 1474.08007812 l 1
EndSplineSet
EndChar

StartChar: Z
Encoding: 90 90 25
Width: 1190
VWidth: 2457
Flags: W
HStem: -0.480469 172.032<329.185 1091.04> 1302.05 172.032<108 869.855>
LayerCount: 2
Fore
SplineSet
108 1302.04785156 m 1
 108 1474.08007812 l 1
 1091.04003906 1474.08007812 l 1
 1091.04003906 1351.20019531 l 1
 329.184570312 171.551757812 l 1
 1091.04003906 171.551757812 l 1
 1091.04003906 -0.48046875 l 1
 108 -0.48046875 l 1
 108 122.400390625 l 1
 869.85546875 1302.04785156 l 1
 108 1302.04785156 l 1
EndSplineSet
EndChar

StartChar: a
Encoding: 97 97 26
Width: 1113
VWidth: 2457
Flags: HW
HStem: -0.480469 147.457<433.911 729.569> 466.464 147.456<463.406 870.552> 908.832 147.456<457.988 775.46>
VStem: 207 172.032<201.32 390.264> 870.552 172.033<268.663 466.464 613.92 812.688> 919.704 122.881<-0.480469 56.8606>
LayerCount: 2
Fore
SplineSet
846.704101562 -0.48046875 m 5
 807.981445312 154.40234375 l 5
 716.1171875 66.19921875 600.284179688 -0.48046875 502.640625 -0.48046875 c 4
 306.032226562 -0.48046875 134 146.9765625 134 319.0078125 c 4
 134 491.040039062 306.032226562 613.919921875 527.215820312 613.919921875 c 6
 797.551757812 613.919921875 l 5
 797.551757812 687.6484375 l 6
 797.551757812 810.528320312 699.248046875 908.83203125 551.791992188 908.83203125 c 4
 404.3359375 908.83203125 306.032226562 785.952148438 306.032226562 785.952148438 c 5
 183.15234375 859.680664062 l 5
 183.15234375 859.680664062 330.607421875 1056.28808594 551.791992188 1056.28808594 c 4
 772.9765625 1056.28808594 969.583984375 908.83203125 969.583984375 687.6484375 c 6
 969.583984375 613.919921875 l 5
 969.583984375 441.888671875 l 5
 969.583984375 -0.48046875 l 5
 846.704101562 -0.48046875 l 5
797.551757812 368.16015625 m 6
 797.551757812 466.463867188 l 5
 527.215820312 466.463867188 l 6
 428.912109375 466.463867188 306.032226562 392.736328125 306.032226562 294.432617188 c 4
 306.032226562 196.12890625 404.3359375 146.9765625 527.215820312 146.9765625 c 4
 650.095703125 146.9765625 797.551757812 269.85546875 797.551757812 368.16015625 c 6
EndSplineSet
EndChar

StartChar: b
Encoding: 98 98 27
Width: 1177
VWidth: 2457
Flags: W
HStem: -25.0557 147.456<475.421 753.552> -0.480469 21G<147 274.881> 908.832 147.456<474.26 753.552> 1454.08 20G<147 319.033>
VStem: 147 172.033<301.899 729.332 859.424 1474.08> 147 122.881<-0.480469 56.8645> 908.856 172.032<303.579 727.653>
LayerCount: 2
Fore
SplineSet
269.880859375 -0.48046875 m 1x76
 147 -0.48046875 l 1x76
 147 1474.08007812 l 1
 319.033203125 1474.08007812 l 1
 319.033203125 859.423828125 l 1
 365.619140625 976.111328125 453.337890625 1056.28808594 613.944335938 1056.28808594 c 0
 908.856445312 1056.28808594 1080.88867188 785.952148438 1080.88867188 515.615234375 c 0
 1080.88867188 245.280273438 908.856445312 -25.0556640625 613.944335938 -25.0556640625 c 0xba
 448.9921875 -25.0556640625 360.92578125 59.5146484375 315.33984375 181.358398438 c 1
 269.880859375 -0.48046875 l 1x76
319.033203125 515.615234375 m 0xba
 319.033203125 294.432617188 441.912109375 122.400390625 613.944335938 122.400390625 c 0
 785.9765625 122.400390625 908.856445312 294.432617188 908.856445312 515.615234375 c 0
 908.856445312 736.799804688 785.9765625 908.83203125 613.944335938 908.83203125 c 0
 441.912109375 908.83203125 319.033203125 736.799804688 319.033203125 515.615234375 c 0xba
EndSplineSet
EndChar

StartChar: c
Encoding: 99 99 28
Width: 957
VWidth: 2457
Flags: W
HStem: -25.0557 147.456<405.337 698.969> 908.832 147.456<405.337 698.969>
VStem: 78 172.032<303.579 727.653>
LayerCount: 2
Fore
SplineSet
544.944335938 1056.28808594 m 0
 677.9296875 1056.28808594 785.92578125 981.739257812 864.432617188 902.079101562 c 2
 790.704101562 785.952148438 l 1
 738.116210938 857.857421875 636.150390625 908.83203125 544.944335938 908.83203125 c 0
 372.912109375 908.83203125 250.032226562 736.799804688 250.032226562 515.615234375 c 0
 250.032226562 294.432617188 372.912109375 122.400390625 544.944335938 122.400390625 c 0
 636.150390625 122.400390625 738.116210938 173.375 790.704101562 245.280273438 c 1
 864.432617188 129.153320312 l 2
 785.92578125 49.4931640625 677.9296875 -25.0556640625 544.944335938 -25.0556640625 c 0
 250.032226562 -25.0556640625 78 245.280273438 78 515.615234375 c 0
 78 785.952148438 250.032226562 1056.28808594 544.944335938 1056.28808594 c 0
EndSplineSet
EndChar

StartChar: d
Encoding: 100 100 29
Width: 1162
VWidth: 2457
Flags: W
HStem: -25.0557 147.456<404.337 682.469> -0.480469 21G<883.008 1010.89> 908.832 147.456<404.337 683.628> 1454.08 20G<838.856 1010.89>
VStem: 77 172.033<303.579 727.653> 838.856 172.032<301.899 729.332 859.424 1474.08> 888.008 122.881<-0.480469 56.8632>
LayerCount: 2
Fore
SplineSet
888.0078125 -0.48046875 m 1x7a
 842.547851562 181.358398438 l 1
 796.963867188 59.5146484375 708.8984375 -25.0556640625 543.944335938 -25.0556640625 c 0
 249.033203125 -25.0556640625 77 245.280273438 77 515.615234375 c 0
 77 785.952148438 249.033203125 1056.28808594 543.944335938 1056.28808594 c 0
 704.548828125 1056.28808594 792.270507812 976.111328125 838.856445312 859.423828125 c 1
 838.856445312 1474.08007812 l 1
 1010.88867188 1474.08007812 l 1xbc
 1010.88867188 -0.48046875 l 1
 888.0078125 -0.48046875 l 1x7a
838.856445312 515.615234375 m 0
 838.856445312 736.799804688 715.9765625 908.83203125 543.944335938 908.83203125 c 0
 371.912109375 908.83203125 249.033203125 736.799804688 249.033203125 515.615234375 c 0
 249.033203125 294.432617188 371.912109375 122.400390625 543.944335938 122.400390625 c 0
 715.9765625 122.400390625 838.856445312 294.432617188 838.856445312 515.615234375 c 0
EndSplineSet
EndChar

StartChar: e
Encoding: 101 101 30
Width: 1200
VWidth: 2948
Flags: HW
HStem: -30.0668 176.947<620.456 988.499> 1090.6 176.947<620.93 957.409>
VStem: 228.6 207.281<653.285 871.168>
LayerCount: 2
Fore
SplineSet
135 515.615234375 m 0
 135 785.952148438 307.032226562 1056.28808594 601.944335938 1056.28808594 c 0
 896.85546875 1056.28808594 1068.88867188 785.952148438 1068.88867188 515.615234375 c 1
 320.9140625 390.951171875 l 1
 357.625976562 233.045898438 463.978515625 122.400390625 601.944335938 122.400390625 c 0
 788.83984375 122.400390625 896.85546875 220.704101562 970.583984375 368.16015625 c 1
 1068.42089844 245.280273438 l 2
 1019.73632812 146.9765625 896.85546875 -25.0556640625 601.944335938 -25.0556640625 c 0
 307.032226562 -25.0556640625 135 245.280273438 135 515.615234375 c 0
307.734375 544.404296875 m 1
 882.970703125 640.279296875 l 1
 846.263671875 798.186523438 739.909179688 908.83203125 601.944335938 908.83203125 c 0
 437.451171875 908.83203125 317.8984375 751.55078125 307.734375 544.404296875 c 1
EndSplineSet
EndChar

StartChar: f
Encoding: 102 102 31
Width: 719
VWidth: 2457
Flags: W
HStem: -0.480469 21G<209.456 381.488> 884.256 147.456<62 209.456 381.488 602.672> 1326.62 147.457<413.954 602.672>
VStem: 209.456 172.032<-0.480469 884.256 1031.71 1295.82>
LayerCount: 2
Fore
SplineSet
651.823242188 1474.08007812 m 1
 602.671875 1326.62304688 l 1
 479.791992188 1326.62304688 l 2
 430.640625 1326.62304688 381.48828125 1252.89648438 381.48828125 1179.16796875 c 2
 381.48828125 1031.71191406 l 1
 602.671875 1031.71191406 l 1
 602.671875 884.255859375 l 1
 381.48828125 884.255859375 l 1
 381.48828125 -0.48046875 l 1
 209.456054688 -0.48046875 l 1
 209.456054688 884.255859375 l 1
 62 884.255859375 l 1
 62 1031.71191406 l 1
 209.456054688 1031.71191406 l 1
 209.456054688 1179.16796875 l 2
 209.456054688 1302.04785156 258.608398438 1474.08007812 479.791992188 1474.08007812 c 2
 651.823242188 1474.08007812 l 1
EndSplineSet
EndChar

StartChar: g
Encoding: 103 103 32
Width: 1211
VWidth: 2948
Flags: HW
HStem: -531.418 176.946<585.502 1009.64> -30.0668 176.947<618.204 953.354> 1090.6 176.947<618.204 951.963> 1214.05 24G<1192.61 1346.07>
VStem: 225.4 206.44<364.295 873.184> 1139.63 206.438<-243.6 206.17 362.279 875.198> 1198.61 147.457<1169.24 1238.05>
LayerCount: 2
Fore
SplineSet
944.0078125 1031.71191406 m 1
 1066.88867188 1031.71191406 l 1
 1066.88867188 -49.6328125 l 2
 1066.88867188 -319.967773438 870.280273438 -442.84765625 599.944335938 -442.84765625 c 0
 329.607421875 -442.84765625 182.15234375 -221.6640625 182.15234375 -221.6640625 c 1
 305.032226562 -147.936523438 l 1
 305.032226562 -147.936523438 403.3359375 -295.392578125 599.944335938 -295.392578125 c 0
 796.551757812 -295.392578125 894.85546875 -221.6640625 894.85546875 -49.6328125 c 2
 894.85546875 171.807617188 l 1
 848.270507812 55.1201171875 760.548828125 -25.0556640625 599.944335938 -25.0556640625 c 0
 305.032226562 -25.0556640625 133 245.280273438 133 515.615234375 c 0
 133 785.952148438 305.032226562 1056.28808594 599.944335938 1056.28808594 c 0
 764.8984375 1056.28808594 852.963867188 971.717773438 898.546875 849.874023438 c 1
 944.0078125 1031.71191406 l 1
894.85546875 515.615234375 m 0
 894.85546875 736.799804688 771.9765625 908.83203125 599.944335938 908.83203125 c 0
 427.912109375 908.83203125 305.032226562 736.799804688 305.032226562 515.615234375 c 0
 305.032226562 294.432617188 427.912109375 122.400390625 599.944335938 122.400390625 c 0
 771.9765625 122.400390625 894.85546875 294.432617188 894.85546875 515.615234375 c 0
EndSplineSet
EndChar

StartChar: h
Encoding: 104 104 33
Width: 1109
VWidth: 2457
Flags: W
HStem: -0.480469 21G<147 319.033 810.553 982.585> 908.832 147.456<442.253 685.5> 1454.08 20G<147 319.033>
VStem: 147 172.033<-0.480469 764.003 898.471 1474.08> 810.553 172.032<-0.480469 764.003>
LayerCount: 2
Fore
SplineSet
319.033203125 -0.48046875 m 1
 147 -0.48046875 l 1
 147 1474.08007812 l 1
 319.033203125 1474.08007812 l 1
 319.033203125 898.470703125 l 1
 361.028320312 995.3984375 435.849609375 1056.28808594 564.79296875 1056.28808594 c 0
 810.552734375 1056.28808594 982.584960938 835.103515625 982.584960938 564.767578125 c 2
 982.584960938 -0.48046875 l 1
 810.552734375 -0.48046875 l 1
 810.552734375 564.767578125 l 2
 810.552734375 785.952148438 687.671875 908.83203125 564.79296875 908.83203125 c 0
 441.912109375 908.83203125 319.033203125 785.952148438 319.033203125 564.767578125 c 2
 319.033203125 -0.48046875 l 1
EndSplineSet
EndChar

StartChar: i
Encoding: 105 105 34
Width: 473
VWidth: 2457
Flags: W
HStem: -0.480469 21G<149 321.032> 1011.71 20G<149 321.032> 1277.47 196.608<149 321.032>
VStem: 149 172.032<-0.480469 1031.71 1277.47 1474.08>
LayerCount: 2
Fore
SplineSet
149 -0.48046875 m 1
 149 1031.71191406 l 1
 321.032226562 1031.71191406 l 1
 321.032226562 -0.48046875 l 1
 149 -0.48046875 l 1
149 1277.47167969 m 1
 149 1474.08007812 l 1
 321.032226562 1474.08007812 l 1
 321.032226562 1277.47167969 l 1
 149 1277.47167969 l 1
EndSplineSet
EndChar

StartChar: j
Encoding: 106 106 35
Width: 613
VWidth: 2457
Flags: W
HStem: -393.696 147.456<68.1523 256.87> 1011.71 20G<289.336 461.367> 1277.47 196.608<289.336 461.367>
VStem: 289.336 172.031<-215.433 1031.71 1277.47 1474.08>
LayerCount: 2
Fore
SplineSet
289.3359375 1277.47167969 m 1
 289.3359375 1474.08007812 l 1
 461.3671875 1474.08007812 l 1
 461.3671875 1277.47167969 l 1
 289.3359375 1277.47167969 l 1
19 -393.696289062 m 1
 68.15234375 -246.240234375 l 1
 191.032226562 -246.240234375 l 2
 240.184570312 -246.240234375 289.3359375 -172.51171875 289.3359375 -98.7841796875 c 2
 289.3359375 1031.71191406 l 1
 461.3671875 1031.71191406 l 1
 461.3671875 -98.7841796875 l 2
 461.3671875 -221.6640625 412.215820312 -393.696289062 191.032226562 -393.696289062 c 2
 19 -393.696289062 l 1
EndSplineSet
EndChar

StartChar: k
Encoding: 107 107 36
Width: 1187
VWidth: 2457
Flags: W
HStem: -0.480469 21G<147 319.033 890.523 1130.04> 1011.71 20G<740.224 982.585> 1454.08 20G<147 319.033>
VStem: 147 172.033<-0.480469 392.736 613.92 1474.08>
LayerCount: 2
Fore
SplineSet
147 -0.48046875 m 1
 147 1474.08007812 l 1
 319.033203125 1474.08007812 l 1
 319.033203125 613.919921875 l 1
 439.82421875 728.001953125 l 1
 441.912109375 732.041992188 l 1
 442.942382812 730.946289062 l 1
 761.400390625 1031.71191406 l 1
 982.584960938 1031.71191406 l 1
 550.903320312 616.018554688 l 1
 1130.04101562 -0.48046875 l 1
 908.856445312 -0.48046875 l 1
 440.864257812 510.057617188 l 1
 319.033203125 392.736328125 l 1
 319.033203125 -0.48046875 l 1
 147 -0.48046875 l 1
EndSplineSet
EndChar

StartChar: l
Encoding: 108 108 37
Width: 470
VWidth: 2457
Flags: W
HStem: -0.480469 21G<147 319.033> 1454.08 20G<147 319.033>
VStem: 147 172.033<-0.480469 1474.08>
LayerCount: 2
Fore
SplineSet
147 -0.48046875 m 1
 147 1474.08007812 l 1
 319.033203125 1474.08007812 l 1
 319.033203125 -0.48046875 l 1
 147 -0.48046875 l 1
EndSplineSet
EndChar

StartChar: m
Encoding: 109 109 38
Width: 1763
VWidth: 2457
Flags: W
HStem: -0.480469 21G<137 309.032 800.552 972.584 1464.1 1636.14> 908.832 147.456<432.667 675.284 1096.51 1339.05> 1011.71 20G<137 264.88>
VStem: 137 172.032<-0.480469 764.003> 137 122.88<974.369 1031.71> 800.552 172.032<-0.480469 764.003> 1464.1 172.032<-0.480469 764.003>
LayerCount: 2
Fore
SplineSet
1218.34375 1056.28808594 m 0xce
 1464.10351562 1056.28808594 1636.13574219 835.103515625 1636.13574219 564.767578125 c 2
 1636.13574219 -0.48046875 l 1
 1464.10351562 -0.48046875 l 1
 1464.10351562 564.767578125 l 2
 1464.10351562 785.952148438 1341.22363281 908.83203125 1218.34375 908.83203125 c 0
 1095.46386719 908.83203125 972.583984375 785.952148438 972.583984375 564.767578125 c 2
 972.583984375 -0.48046875 l 1
 800.551757812 -0.48046875 l 1
 800.551757812 564.767578125 l 2
 800.551757812 785.952148438 677.670898438 908.83203125 554.791992188 908.83203125 c 0
 431.911132812 908.83203125 309.032226562 785.952148438 309.032226562 564.767578125 c 2
 309.032226562 -0.48046875 l 1
 137 -0.48046875 l 1xd6
 137 1031.71191406 l 1
 259.879882812 1031.71191406 l 1xae
 299.338867188 873.879882812 l 1
 339.104492188 984.98828125 415.260742188 1056.28808594 554.791992188 1056.28808594 c 0
 734.32421875 1056.28808594 874.506835938 938.254882812 937.02734375 769.25 c 1
 964.203125 938.254882812 1038.81152344 1056.28808594 1218.34375 1056.28808594 c 0xce
EndSplineSet
EndChar

StartChar: n
Encoding: 110 110 39
Width: 1100
VWidth: 2457
Flags: W
HStem: -0.480469 21G<137 309.032 800.552 972.584> 908.832 147.456<432.667 675.499> 1011.71 20G<137 264.88>
VStem: 137 172.032<-0.480469 764.003> 137 122.88<974.369 1031.71> 800.552 172.032<-0.480469 764.003>
LayerCount: 2
Fore
SplineSet
299.338867188 873.879882812 m 1xac
 339.104492188 984.98828125 415.260742188 1056.28808594 554.791992188 1056.28808594 c 0
 800.551757812 1056.28808594 972.583984375 835.103515625 972.583984375 564.767578125 c 2
 972.583984375 -0.48046875 l 1
 800.551757812 -0.48046875 l 1
 800.551757812 564.767578125 l 2
 800.551757812 785.952148438 677.670898438 908.83203125 554.791992188 908.83203125 c 0
 431.911132812 908.83203125 309.032226562 785.952148438 309.032226562 564.767578125 c 2
 309.032226562 -0.48046875 l 1
 137 -0.48046875 l 1xd4
 137 1031.71191406 l 1
 259.879882812 1031.71191406 l 1
 299.338867188 873.879882812 l 1xac
EndSplineSet
EndChar

StartChar: o
Encoding: 111 111 40
Width: 1109
VWidth: 2457
Flags: W
HStem: -25.0557 147.456<405.337 684.552> 908.832 147.456<405.337 684.552>
VStem: 78 172.032<303.579 727.653> 839.855 172.033<303.579 727.653>
LayerCount: 2
Fore
SplineSet
78 515.615234375 m 0
 78 785.952148438 250.032226562 1056.28808594 544.944335938 1056.28808594 c 0
 839.85546875 1056.28808594 1011.88867188 785.952148438 1011.88867188 515.615234375 c 0
 1011.88867188 245.280273438 839.85546875 -25.0556640625 544.944335938 -25.0556640625 c 0
 250.032226562 -25.0556640625 78 245.280273438 78 515.615234375 c 0
544.944335938 908.83203125 m 0
 372.912109375 908.83203125 250.032226562 736.799804688 250.032226562 515.615234375 c 0
 250.032226562 294.432617188 372.912109375 122.400390625 544.944335938 122.400390625 c 0
 716.9765625 122.400390625 839.85546875 294.432617188 839.85546875 515.615234375 c 0
 839.85546875 736.799804688 716.9765625 908.83203125 544.944335938 908.83203125 c 0
EndSplineSet
EndChar

StartChar: p
Encoding: 112 112 41
Width: 1168
VWidth: 2457
Flags: W
HStem: -442.848 21G<137 309.032> -25.0557 147.456<464.26 743.552> 908.832 147.456<465.42 743.552> 1011.71 20G<137 264.88>
VStem: 137 172.032<-442.848 171.808 301.899 729.332> 137 122.88<974.369 1031.71> 898.855 172.032<303.579 727.653>
LayerCount: 2
Fore
SplineSet
259.879882812 1031.71191406 m 1xd6
 305.33984375 849.874023438 l 1
 350.92578125 971.717773438 438.9921875 1056.28808594 603.944335938 1056.28808594 c 0
 898.85546875 1056.28808594 1070.88769531 785.952148438 1070.88769531 515.615234375 c 0
 1070.88769531 245.280273438 898.85546875 -25.0556640625 603.944335938 -25.0556640625 c 0
 443.336914062 -25.0556640625 355.619140625 55.1201171875 309.032226562 171.807617188 c 1
 309.032226562 -442.84765625 l 1
 137 -442.84765625 l 1xea
 137 1031.71191406 l 1
 259.879882812 1031.71191406 l 1xd6
309.032226562 515.615234375 m 0
 309.032226562 294.432617188 431.911132812 122.400390625 603.944335938 122.400390625 c 0
 775.9765625 122.400390625 898.85546875 294.432617188 898.85546875 515.615234375 c 0
 898.85546875 736.799804688 775.9765625 908.83203125 603.944335938 908.83203125 c 0
 431.911132812 908.83203125 309.032226562 736.799804688 309.032226562 515.615234375 c 0
EndSplineSet
EndChar

StartChar: q
Encoding: 113 113 42
Width: 1156
VWidth: 2457
Flags: W
HStem: -442.848 21G<839.856 1011.89> -25.0557 147.456<405.337 684.628> 908.832 147.456<405.337 683.469> 1011.71 20G<884.008 1011.89>
VStem: 78 172.032<303.579 727.653> 839.856 172.032<-442.848 171.808 301.899 729.332> 889.008 122.881<974.369 1031.71>
LayerCount: 2
Fore
SplineSet
889.0078125 1031.71191406 m 1xda
 1011.88867188 1031.71191406 l 1xda
 1011.88867188 -442.84765625 l 1
 839.856445312 -442.84765625 l 1
 839.856445312 171.807617188 l 1
 793.270507812 55.1201171875 705.548828125 -25.0556640625 544.944335938 -25.0556640625 c 0
 250.032226562 -25.0556640625 78 245.280273438 78 515.615234375 c 0
 78 785.952148438 250.032226562 1056.28808594 544.944335938 1056.28808594 c 0xec
 709.8984375 1056.28808594 797.963867188 971.717773438 843.547851562 849.874023438 c 1
 889.0078125 1031.71191406 l 1xda
839.856445312 515.615234375 m 0xec
 839.856445312 736.799804688 716.9765625 908.83203125 544.944335938 908.83203125 c 0
 372.912109375 908.83203125 250.032226562 736.799804688 250.032226562 515.615234375 c 0
 250.032226562 294.432617188 372.912109375 122.400390625 544.944335938 122.400390625 c 0
 716.9765625 122.400390625 839.856445312 294.432617188 839.856445312 515.615234375 c 0xec
EndSplineSet
EndChar

StartChar: r
Encoding: 114 114 43
Width: 851
VWidth: 2457
Flags: W
HStem: -0.480469 21G<137 309.032> 908.832 147.456<465.42 685.394> 1011.71 20G<137 264.88>
VStem: 137 172.032<-0.480469 729.332> 137 122.88<974.369 1031.71>
LayerCount: 2
Fore
SplineSet
259.879882812 1031.71191406 m 1xa8
 305.33984375 849.874023438 l 1
 350.92578125 971.717773438 438.9921875 1056.28808594 603.944335938 1056.28808594 c 0
 629.448242188 1056.28808594 654.034179688 1054.26757812 677.670898438 1050.39453125 c 2
 775.9765625 839.901367188 l 1
 728.627929688 883.547851562 669.895507812 908.83203125 603.944335938 908.83203125 c 0
 431.911132812 908.83203125 309.032226562 736.799804688 309.032226562 515.615234375 c 2
 309.032226562 -0.48046875 l 1
 137 -0.48046875 l 1xd0
 137 1031.71191406 l 1
 259.879882812 1031.71191406 l 1xa8
EndSplineSet
EndChar

StartChar: s
Encoding: 115 115 44
Width: 999
VWidth: 2457
Flags: W
HStem: -25.0557 147.456<321.452 669.697> 908.832 147.456<356.483 644.335>
VStem: 119.151 172.032<679.498 849.045> 733.552 172.032<181.421 377.668>
LayerCount: 2
Fore
SplineSet
119.151367188 761.376953125 m 0
 119.151367188 830.104492188 139.630859375 1056.28808594 487.791992188 1056.28808594 c 0
 758.392578125 1056.28808594 856.431640625 884.255859375 856.431640625 884.255859375 c 1
 758.127929688 736.799804688 l 1
 758.127929688 736.799804688 693.20703125 908.83203125 487.791992188 908.83203125 c 0
 373.84765625 908.83203125 291.18359375 830.104492188 291.18359375 761.376953125 c 0
 291.18359375 692.647460938 371.034179688 631.96875 487.791992188 613.919921875 c 0
 604.546875 595.87109375 905.583984375 533.669921875 905.583984375 293.109375 c 0
 905.583984375 145.673828125 835.950195312 -25.0556640625 487.791992188 -25.0556640625 c 0
 221.923828125 -25.0556640625 70 146.9765625 70 146.9765625 c 1
 168.303710938 294.432617188 l 1
 168.303710938 294.432617188 297.885742188 122.400390625 487.791992188 122.400390625 c 0
 661.874023438 122.400390625 733.551757812 191.3359375 733.551757812 294.432617188 c 0
 733.551757812 397.528320312 579.931640625 450.145507812 487.791992188 466.463867188 c 0
 395.653320312 482.782226562 119.151367188 520.81640625 119.151367188 761.376953125 c 0
EndSplineSet
EndChar

StartChar: t
Encoding: 116 116 45
Width: 728
VWidth: 2457
Flags: W
HStem: -0.480469 147.457<415.954 604.672> 884.256 147.456<64 211.456 383.488 604.672>
VStem: 211.456 172.032<177.783 884.256 1031.71 1277.47>
LayerCount: 2
Fore
SplineSet
653.823242188 -0.48046875 m 1
 481.791992188 -0.48046875 l 2
 260.607421875 -0.48046875 211.456054688 171.551757812 211.456054688 294.432617188 c 2
 211.456054688 884.255859375 l 1
 64 884.255859375 l 1
 64 1031.71191406 l 1
 211.456054688 1031.71191406 l 1
 211.456054688 1277.47167969 l 1
 383.48828125 1277.47167969 l 1
 383.48828125 1031.71191406 l 1
 604.671875 1031.71191406 l 1
 604.671875 884.255859375 l 1
 383.48828125 884.255859375 l 1
 383.48828125 294.432617188 l 2
 383.48828125 220.704101562 432.640625 146.9765625 481.791992188 146.9765625 c 2
 604.671875 146.9765625 l 1
 653.823242188 -0.48046875 l 1
EndSplineSet
EndChar

StartChar: u
Encoding: 117 117 46
Width: 1085
VWidth: 2457
Flags: W
HStem: -25.0557 147.456<404.085 646.918> -0.480469 21G<814.704 942.585> 1011.71 20G<107 279.033 770.553 942.585>
VStem: 107 172.033<267.229 1031.71> 770.553 172.032<267.229 1031.71> 819.704 122.881<-0.480469 56.8625>
LayerCount: 2
Fore
SplineSet
780.245117188 157.352539062 m 1x74
 740.48046875 46.2431640625 664.325195312 -25.0556640625 524.79296875 -25.0556640625 c 0
 279.033203125 -25.0556640625 107 196.12890625 107 466.463867188 c 2
 107 1031.71191406 l 1
 279.033203125 1031.71191406 l 1
 279.033203125 466.463867188 l 2
 279.033203125 245.280273438 401.912109375 122.400390625 524.79296875 122.400390625 c 0
 647.671875 122.400390625 770.552734375 245.280273438 770.552734375 466.463867188 c 2
 770.552734375 1031.71191406 l 1
 942.584960938 1031.71191406 l 1xb8
 942.584960938 -0.48046875 l 1
 819.704101562 -0.48046875 l 1
 780.245117188 157.352539062 l 1x74
EndSplineSet
EndChar

StartChar: v
Encoding: 118 118 47
Width: 1051
VWidth: 2457
Flags: W
HStem: -0.480469 21G<415.498 614.103> 1011.71 20G<54 245.462 784.137 975.6>
LayerCount: 2
Fore
SplineSet
238.319335938 1031.71191406 m 1
 514.799804688 257.567382812 l 1
 791.280273438 1031.71191406 l 1
 975.599609375 1031.71191406 l 1
 606.959960938 -0.48046875 l 1
 422.640625 -0.48046875 l 1
 54 1031.71191406 l 1
 238.319335938 1031.71191406 l 1
EndSplineSet
EndChar

StartChar: w
Encoding: 119 119 48
Width: 1788
VWidth: 2457
Flags: W
HStem: -0.480469 21G<415.498 614.103 1152.78 1351.38> 1011.71 20G<54 245.462 784.137 982.742 1521.42 1712.88>
LayerCount: 2
Fore
SplineSet
54 1031.71191406 m 1
 238.319335938 1031.71191406 l 1
 514.799804688 257.567382812 l 1
 791.280273438 1031.71191406 l 1
 975.599609375 1031.71191406 l 1
 1252.08007812 257.567382812 l 1
 1528.55957031 1031.71191406 l 1
 1712.88085938 1031.71191406 l 1
 1344.24023438 -0.48046875 l 1
 1159.91992188 -0.48046875 l 1
 883.440429688 773.6640625 l 1
 606.959960938 -0.48046875 l 1
 422.640625 -0.48046875 l 1
 54 1031.71191406 l 1
EndSplineSet
EndChar

StartChar: x
Encoding: 120 120 49
Width: 1008
VWidth: 2457
Flags: W
HStem: -0.480469 21G<85 293.988 711.596 920.584> 1011.71 20G<85 293.988 711.596 920.584>
LayerCount: 2
Fore
SplineSet
502.791992188 356.81640625 m 1
 281.607421875 -0.48046875 l 1
 85 -0.48046875 l 1
 404.48828125 515.615234375 l 1
 85 1031.71191406 l 1
 281.607421875 1031.71191406 l 1
 502.791992188 674.416015625 l 1
 723.9765625 1031.71191406 l 1
 920.583984375 1031.71191406 l 1
 601.095703125 515.615234375 l 1
 920.583984375 -0.48046875 l 1
 723.9765625 -0.48046875 l 1
 502.791992188 356.81640625 l 1
EndSplineSet
EndChar

StartChar: y
Encoding: 121 121 50
Width: 1050
VWidth: 2457
Flags: W
HStem: -442.848 147.455<115.44 301.957> 1011.71 20G<54 245.463 784.081 975.601>
LayerCount: 2
Fore
SplineSet
54 1031.71191406 m 1
 238.3203125 1031.71191406 l 1
 513.69921875 260.649414062 l 1
 791.28125 1031.71191406 l 1
 975.600585938 1031.71191406 l 1
 545.51953125 -147.936523438 l 2
 499.633789062 -257.78515625 420.546875 -442.84765625 238.3203125 -442.84765625 c 2
 66.2890625 -442.84765625 l 1
 115.440429688 -295.392578125 l 1
 238.3203125 -295.392578125 l 2
 287.471679688 -295.392578125 336.624023438 -221.6640625 361.200195312 -147.936523438 c 2
 421.171875 3.6337890625 l 1
 54 1031.71191406 l 1
EndSplineSet
EndChar

StartChar: z
Encoding: 122 122 51
Width: 1018
VWidth: 2457
Flags: W
HStem: -0.480469 172.032<360.76 901.433> 859.681 172.031<115 655.672>
LayerCount: 2
Fore
SplineSet
115 859.680664062 m 1
 115 1031.71191406 l 1
 901.432617188 1031.71191406 l 1
 901.432617188 908.83203125 l 1
 360.759765625 171.551757812 l 1
 901.432617188 171.551757812 l 1
 901.432617188 -0.48046875 l 1
 115 -0.48046875 l 1
 115 122.400390625 l 1
 655.671875 859.680664062 l 1
 115 859.680664062 l 1
EndSplineSet
EndChar

StartChar: comma
Encoding: 44 44 52
Width: 486
VWidth: 2948
Flags: W
HStem: -265.997 501.292
VStem: 195.965 176.947<-96.6233 87.8975>
LayerCount: 2
Fore
SplineSet
195.96484375 235.294921875 m 1
 372.912109375 235.294921875 l 1
 372.912109375 239.782226562 372.912109375 87.8974609375 372.912109375 87.8974609375 c 2
 372.912109375 -207.013671875 136.982421875 -265.997070312 136.982421875 -265.997070312 c 1
 78 -177.5234375 l 1
 78 -177.5234375 195.96484375 -118.541015625 195.96484375 87.8974609375 c 2
 195.96484375 87.8974609375 195.96484375 239.782226562 195.96484375 235.294921875 c 1
EndSplineSet
EndChar

StartChar: period
Encoding: 46 46 54
Width: 398
VWidth: 2457
Flags: W
HStem: -0.367188 196.446<115.2 287.232>
VStem: 115.2 172.032
LayerCount: 2
Fore
SplineSet
115.200195312 196.079101562 m 1
 287.232421875 196.079101562 l 1
 287.232421875 199.818359375 287.232421875 -5.98046875 287.232421875 -0.3671875 c 1
 115.200195312 -0.3671875 l 1
 115.200195312 -5.98046875 115.200195312 199.818359375 115.200195312 196.079101562 c 1
EndSplineSet
EndChar

StartChar: exclam
Encoding: 33 33 55
Width: 470
VWidth: 2457
Flags: W
HStem: -0.367188 196.446<156 328.032>
VStem: 156 172.032
LayerCount: 2
Fore
SplineSet
156 196.079101562 m 5
 328.032226562 196.079101562 l 5
 328.032226562 199.818359375 328.032226562 -5.98046875 328.032226562 -0.3671875 c 5
 156 -0.3671875 l 5
 156 -5.98046875 156 199.818359375 156 196.079101562 c 5
156 1473.81445312 m 5
 328.032226562 1473.81445312 l 5
 328.032226562 1493.45996094 328.032226562 413.010742188 328.032226562 442.477539062 c 5
 156 442.477539062 l 5
 156 413.010742188 156 1493.45996094 156 1473.81445312 c 5
EndSplineSet
EndChar

StartChar: dollar
Encoding: 36 36 56
Width: 1292
VWidth: 2457
Flags: W
HStem: 1.05859 147.171<426.866 573.119 720.576 930.787> 1322.21 149.324<424.049 573.119 720.576 865.842>
VStem: 130.752 172.032<946.074 1214.84> 573.119 147.457<-147.937 1.05859 152.226 649.394 825.141 1321.87 1468.67 1621.54> 1040.06 172.032<240.41 520.971>
LayerCount: 2
Fore
SplineSet
573.119140625 1621.53613281 m 1
 720.576171875 1621.53613281 l 1
 720.576171875 1471.32324219 l 1
 1033.21777344 1447.51855469 1162.94433594 1277.47167969 1162.94433594 1277.47167969 c 1
 1064.640625 1130.015625 l 1
 1064.640625 1130.015625 949.49609375 1291.86328125 720.576171875 1321.87109375 c 1
 720.576171875 798.849609375 l 2
 904.8515625 769.038085938 1212.09570312 701.876953125 1212.09570312 392.736328125 c 0
 1212.09570312 186.484375 1127.87890625 18.73828125 720.576171875 1.05859375 c 1
 720.576171875 -147.936523438 l 1
 573.119140625 -147.936523438 l 1
 573.119140625 2.3125 l 1
 259.196289062 26.25390625 81.599609375 196.12890625 81.599609375 196.12890625 c 1
 179.904296875 343.583984375 l 1
 179.904296875 343.583984375 350.927734375 183.475585938 573.119140625 152.225585938 c 1
 573.119140625 676.219726562 l 2
 411.419921875 706.247070312 130.751953125 779.473632812 130.751953125 1080.86328125 c 0
 130.751953125 1176.98046875 171.000976562 1442.671875 573.119140625 1471.52929688 c 1
 573.119140625 1621.53613281 l 1
573.119140625 1322.20507812 m 1
 438.174804688 1305.70507812 302.784179688 1240.29394531 302.784179688 1080.86328125 c 0
 302.784179688 920.942382812 436.284179688 857.143554688 573.119140625 825.140625 c 1
 573.119140625 1322.20507812 l 1
720.576171875 649.393554688 m 1
 720.576171875 148.229492188 l 1
 914.696289062 155.65625 1040.06347656 200.331054688 1040.06347656 392.736328125 c 0
 1040.06347656 571.973632812 854.78125 623.313476562 720.576171875 649.393554688 c 1
EndSplineSet
EndChar

StartChar: numbersign
Encoding: 35 35 57
Width: 1280
VWidth: 2457
Flags: W
HStem: -0.480469 21G<182.304 358.336 624.672 800.704> 392.736 147.456<84 260.947 462.47 703.314 904.839 1140.77> 982.56 147.456<157.729 378.912 580.436 821.28 1022.8 1214.5> 1454.08 20G<473.216 649.248 915.584 1091.62>
LayerCount: 2
Fore
SplineSet
182.303710938 -0.48046875 m 1
 260.947265625 392.736328125 l 1
 84 392.736328125 l 1
 84 540.192382812 l 1
 290.438476562 540.192382812 l 1
 378.912109375 982.559570312 l 1
 157.728515625 982.559570312 l 1
 157.728515625 1130.015625 l 1
 408.403320312 1130.015625 l 1
 477.215820312 1474.08007812 l 1
 649.248046875 1474.08007812 l 1
 580.435546875 1130.015625 l 1
 850.770507812 1130.015625 l 1
 919.583984375 1474.08007812 l 1
 1091.61523438 1474.08007812 l 1
 1022.80273438 1130.015625 l 1
 1214.49609375 1130.015625 l 1
 1214.49609375 982.559570312 l 1
 993.311523438 982.559570312 l 1
 904.838867188 540.192382812 l 1
 1140.76757812 540.192382812 l 1
 1140.76757812 392.736328125 l 1
 875.34765625 392.736328125 l 1
 796.704101562 -0.48046875 l 1
 624.671875 -0.48046875 l 1
 703.314453125 392.736328125 l 1
 432.979492188 392.736328125 l 1
 354.3359375 -0.48046875 l 1
 182.303710938 -0.48046875 l 1
462.469726562 540.192382812 m 1
 732.806640625 540.192382812 l 1
 821.280273438 982.559570312 l 1
 550.944335938 982.559570312 l 1
 462.469726562 540.192382812 l 1
EndSplineSet
EndChar

StartChar: percent
Encoding: 37 37 58
Width: 1581
VWidth: 2457
Flags: W
HStem: -25.0557 147.456<1083.94 1271.9> -0.480469 21G<293.185 500.459> 515.615 147.456<1083.94 1271.9> 810.528 147.456<297.51 485.467> 1351.2 147.456<297.51 485.467> 1454.08 20G<1068.95 1276.22>
VStem: 72 172.032<1014.5 1294.68> 538.944 172.032<1014.5 1294.68> 858.433 172.031<178.921 459.095> 1325.38 172.031<178.921 459.095>
LayerCount: 2
Fore
SplineSet
858.432617188 319.0078125 m 0xb3c0
 858.432617188 540.192382812 981.311523438 663.071289062 1177.91992188 663.071289062 c 0
 1374.52832031 663.071289062 1497.40820312 540.192382812 1497.40820312 319.0078125 c 0
 1497.40820312 97.8232421875 1374.52832031 -25.0556640625 1177.91992188 -25.0556640625 c 0
 981.311523438 -25.0556640625 858.432617188 97.8232421875 858.432617188 319.0078125 c 0xb3c0
1177.91992188 515.615234375 m 0
 1104.19238281 515.615234375 1030.46386719 441.888671875 1030.46386719 319.0078125 c 0
 1030.46386719 196.12890625 1104.19238281 122.400390625 1177.91992188 122.400390625 c 0
 1251.6484375 122.400390625 1325.37695312 196.12890625 1325.37695312 319.0078125 c 0
 1325.37695312 441.888671875 1251.6484375 515.615234375 1177.91992188 515.615234375 c 0
72 1154.59179688 m 0
 72 1375.77636719 194.880859375 1498.65625 391.48828125 1498.65625 c 0x3bc0
 588.095703125 1498.65625 710.9765625 1375.77636719 710.9765625 1154.59179688 c 0
 710.9765625 933.408203125 588.095703125 810.528320312 391.48828125 810.528320312 c 0
 194.880859375 810.528320312 72 933.408203125 72 1154.59179688 c 0
391.48828125 1351.20019531 m 0
 317.759765625 1351.20019531 244.032226562 1277.47167969 244.032226562 1154.59179688 c 0
 244.032226562 1031.71191406 317.759765625 957.984375 391.48828125 957.984375 c 0
 465.215820312 957.984375 538.944335938 1031.71191406 538.944335938 1154.59179688 c 0
 538.944335938 1277.47167969 465.215820312 1351.20019531 391.48828125 1351.20019531 c 0
1276.22363281 1474.08007812 m 1x77c0
 489.791992188 -0.48046875 l 1
 293.184570312 -0.48046875 l 1
 1079.61523438 1474.08007812 l 1
 1276.22363281 1474.08007812 l 1x77c0
EndSplineSet
EndChar

StartChar: ampersand
Encoding: 38 38 59
Width: 1316
VWidth: 2457
Flags: W
HStem: -25.0557 172.032<409.501 809.853> -0.480469 21G<1049.82 1263.65> 1326.62 172.033<473.861 726.332>
VStem: 84 172.032<274.652 497.274> 231.456 172.032<991.708 1257.2> 796.704 172.032<1027.17 1257.2> 1041 162.19<428.882 548.881>
LayerCount: 2
Fore
SplineSet
968.736328125 1130.015625 m 0xae
 968.736328125 967.961914062 810.623046875 849.520507812 643.345703125 743.8828125 c 1
 965.16796875 357.696289062 l 1
 1007.71875 436.142578125 1034.63867188 532.224609375 1041.00488281 638.49609375 c 1
 1203.1953125 540.192382812 l 2
 1183.75683594 416.5546875 1140.1875 308.061523438 1079.86914062 220.0546875 c 2
 1263.6484375 -0.48046875 l 1
 1067.04003906 -0.48046875 l 1x6e
 977.318359375 103.711914062 l 1
 883.4765625 21.318359375 769.3515625 -25.0556640625 649.248046875 -25.0556640625 c 0
 347.782226562 -25.0556640625 84 125.127929688 84 392.736328125 c 0xb6
 84 551.978515625 236.666015625 669.103515625 400.682617188 773.354492188 c 1
 305.184570312 884.255859375 l 2
 247.477539062 971.087890625 231.45703125 1026.41796875 231.456054688 1130.015625 c 0
 231.456054688 1336.45410156 378.912109375 1498.65625 600.095703125 1498.65625 c 0
 821.280273438 1498.65625 968.736328125 1336.45410156 968.736328125 1130.015625 c 0xae
256.032226562 392.736328125 m 0xb6
 256.032226562 239.814453125 423.1484375 146.9765625 649.248046875 146.9765625 c 0
 731.291992188 146.9765625 805.576171875 177.897460938 866.922851562 231.915039062 c 2
 501.684570312 656.0625 l 2
 367.177734375 571.506835938 256.032226562 489.786132812 256.032226562 392.736328125 c 0xb6
796.704101562 1130.015625 m 0
 796.704101562 1233.23535156 722.9765625 1326.62304688 600.095703125 1326.62304688 c 0
 477.215820312 1326.62304688 403.48828125 1233.23535156 403.48828125 1130.015625 c 0x2e
 403.48828125 1057.78710938 428.063476562 1007.13671875 526.3671875 884.255859375 c 2
 544.454101562 862.55078125 l 2
 681.904296875 948.581054688 796.704101562 1031.3828125 796.704101562 1130.015625 c 0
EndSplineSet
EndChar

StartChar: parenleft
Encoding: 40 40 60
Width: 626
VWidth: 2457
Flags: W
VStem: 112.8 172.032<293.678 1081.62>
LayerCount: 2
Fore
SplineSet
112.799804688 687.6484375 m 0
 112.799804688 1424.92871094 506.015625 1670.68847656 506.015625 1670.68847656 c 1
 555.16796875 1572.38476562 l 1
 555.16796875 1572.38476562 284.83203125 1302.04785156 284.83203125 687.6484375 c 0
 284.83203125 73.248046875 555.16796875 -197.087890625 555.16796875 -197.087890625 c 1
 506.015625 -295.392578125 l 1
 506.015625 -295.392578125 112.799804688 -49.6328125 112.799804688 687.6484375 c 0
EndSplineSet
EndChar

StartChar: parenright
Encoding: 41 41 61
Width: 608
VWidth: 2457
Flags: W
VStem: 338.736 172.031<293.678 1081.62>
LayerCount: 2
Fore
SplineSet
510.767578125 687.6484375 m 0
 510.767578125 -49.6328125 117.551757812 -295.392578125 117.551757812 -295.392578125 c 1
 68.400390625 -197.087890625 l 1
 68.400390625 -197.087890625 338.736328125 73.248046875 338.736328125 687.6484375 c 0
 338.736328125 1302.04785156 68.400390625 1572.38476562 68.400390625 1572.38476562 c 1
 117.551757812 1670.68847656 l 1
 117.551757812 1670.68847656 510.767578125 1424.92871094 510.767578125 687.6484375 c 0
EndSplineSet
EndChar

StartChar: slash
Encoding: 47 47 62
Width: 792
VWidth: 2457
Flags: W
LayerCount: 2
Fore
SplineSet
750.528320312 1572.38476562 m 1
 259.0078125 -197.087890625 l 1
 62.400390625 -197.087890625 l 1
 553.919921875 1572.38476562 l 1
 750.528320312 1572.38476562 l 1
EndSplineSet
EndChar

StartChar: braceleft
Encoding: 123 123 63
Width: 660
VWidth: 2457
Flags: W
HStem: -295.393 147.456<456.306 546.72> 638.496 147.456<55.2002 200.402> 1572.38 147.455<456.306 546.72>
VStem: 251.808 172.032<-117.129 586.512 837.936 1541.58>
LayerCount: 2
Fore
SplineSet
251.807617188 1424.92871094 m 2
 251.807617188 1547.80761719 300.959960938 1719.83984375 522.14453125 1719.83984375 c 2
 595.87109375 1719.83984375 l 1
 546.719726562 1572.38476562 l 1
 522.14453125 1572.38476562 l 2
 472.9921875 1572.38476562 423.83984375 1498.65625 423.83984375 1424.92871094 c 2
 423.83984375 884.255859375 l 2
 423.83984375 835.103515625 374.688476562 712.223632812 227.232421875 712.223632812 c 1
 374.688476562 712.223632812 423.83984375 589.34375 423.83984375 540.192382812 c 2
 423.83984375 -0.48046875 l 2
 423.83984375 -74.2080078125 472.9921875 -147.936523438 522.14453125 -147.936523438 c 2
 546.719726562 -147.936523438 l 1
 595.87109375 -295.392578125 l 1
 522.14453125 -295.392578125 l 2
 300.959960938 -295.392578125 251.807617188 -123.359375 251.807617188 -0.48046875 c 2
 251.807617188 -0.48046875 251.807617188 392.736328125 251.807617188 491.040039062 c 0
 251.807617188 589.34375 153.50390625 638.49609375 55.2001953125 638.49609375 c 1
 55.2001953125 712.223632812 l 1
 55.2001953125 785.952148438 l 1
 153.50390625 785.952148438 251.807617188 835.103515625 251.807617188 933.408203125 c 0
 251.807617188 1031.71191406 251.807617188 1424.92871094 251.807617188 1424.92871094 c 2
EndSplineSet
EndChar

StartChar: braceright
Encoding: 125 125 64
Width: 649
VWidth: 2457
Flags: W
HStem: -295.393 147.456<105.552 195.967> 638.496 147.456<451.87 597.071> 1572.38 147.455<105.552 195.967>
VStem: 228.433 172.031<-117.129 586.512 837.936 1541.58>
LayerCount: 2
Fore
SplineSet
400.463867188 1424.92871094 m 2
 400.463867188 1424.92871094 400.463867188 1031.71191406 400.463867188 933.408203125 c 0
 400.463867188 835.103515625 498.767578125 785.952148438 597.071289062 785.952148438 c 1
 597.071289062 712.223632812 l 1
 597.071289062 638.49609375 l 1
 498.767578125 638.49609375 400.463867188 589.34375 400.463867188 491.040039062 c 0
 400.463867188 392.736328125 400.463867188 -0.48046875 400.463867188 -0.48046875 c 2
 400.463867188 -123.359375 351.311523438 -295.392578125 130.12890625 -295.392578125 c 2
 56.400390625 -295.392578125 l 1
 105.551757812 -147.936523438 l 1
 130.12890625 -147.936523438 l 2
 179.280273438 -147.936523438 228.432617188 -74.2080078125 228.432617188 -0.48046875 c 2
 228.432617188 540.192382812 l 2
 228.432617188 589.34375 277.583984375 712.223632812 425.040039062 712.223632812 c 1
 277.583984375 712.223632812 228.432617188 835.103515625 228.432617188 884.255859375 c 2
 228.432617188 1424.92871094 l 2
 228.432617188 1498.65625 179.280273438 1572.38476562 130.12890625 1572.38476562 c 2
 105.551757812 1572.38476562 l 1
 56.400390625 1719.83984375 l 1
 130.12890625 1719.83984375 l 2
 351.311523438 1719.83984375 400.463867188 1547.80761719 400.463867188 1424.92871094 c 2
EndSplineSet
EndChar

StartChar: bracketleft
Encoding: 91 91 65
Width: 704
VWidth: 2457
Flags: W
HStem: -295.393 147.456<354.433 624.768> 1572.38 147.455<354.433 624.768>
VStem: 182.4 442.367<-295.393 -147.937 1572.38 1719.84> 182.4 172.032<-147.937 1572.38>
LayerCount: 2
Fore
SplineSet
182.400390625 1719.83984375 m 1xe0
 624.767578125 1719.83984375 l 1
 624.767578125 1572.38476562 l 1xe0
 354.432617188 1572.38476562 l 1
 354.432617188 -147.936523438 l 1xd0
 624.767578125 -147.936523438 l 1
 624.767578125 -295.392578125 l 1
 182.400390625 -295.392578125 l 1
 182.400390625 1719.83984375 l 1xe0
EndSplineSet
EndChar

StartChar: bracketright
Encoding: 93 93 66
Width: 686
VWidth: 2457
Flags: W
HStem: -295.393 147.456<66 336.336> 1572.38 147.455<66 336.336>
VStem: 66 442.367<-295.393 -147.937 1572.38 1719.84> 336.336 172.031<-147.937 1572.38>
LayerCount: 2
Fore
SplineSet
508.3671875 1719.83984375 m 1xe0
 508.3671875 -295.392578125 l 1
 66 -295.392578125 l 1
 66 -147.936523438 l 1xe0
 336.3359375 -147.936523438 l 1
 336.3359375 1572.38476562 l 1xd0
 66 1572.38476562 l 1
 66 1719.83984375 l 1
 508.3671875 1719.83984375 l 1xe0
EndSplineSet
EndChar

StartChar: question
Encoding: 63 63 67
Width: 956
VWidth: 2457
Flags: W
HStem: -0.367188 196.446<392.063 564.096> 1326.62 172.033<311.834 627.931>
VStem: 394.759 172.03<-0.477073 196.079 368.16 650.355> 711.552 172.032<924.807 1243.08>
LayerCount: 2
Fore
SplineSet
392.063476562 196.079101562 m 1
 564.095703125 196.079101562 l 1
 564.095703125 199.818359375 564.095703125 -5.98046875 564.095703125 -0.3671875 c 1
 392.063476562 -0.3671875 l 1
 392.063476562 -5.98046875 392.063476562 199.818359375 392.063476562 196.079101562 c 1
566.7890625 368.16015625 m 1
 394.758789062 368.16015625 l 1
 394.758789062 589.34375 l 2
 394.758789062 699.936523438 477.702148438 755.232421875 560.646484375 810.528320312 c 0
 643.588867188 865.823242188 711.551757812 970.271484375 711.551757812 1080.86328125 c 0
 711.551757812 1228.31933594 650.111328125 1326.62304688 465.791992188 1326.62304688 c 0
 301.69140625 1326.62304688 198.150390625 1203.74414062 173.573242188 1080.86328125 c 1
 48 1179.16796875 l 1
 111.705078125 1383.14453125 303.036132812 1498.65625 468.487304688 1498.65625 c 0
 689.669921875 1498.65625 883.583984375 1375.77636719 883.583984375 1080.86328125 c 0
 883.583984375 897.959960938 783.235351562 765.16015625 686.297851562 701.62109375 c 0
 677.916992188 696.130859375 669.522460938 690.7890625 661.284179688 685.544921875 c 0
 611.154296875 653.64453125 566.7890625 625.416992188 566.7890625 589.34375 c 2
 566.7890625 368.16015625 l 1
EndSplineSet
EndChar

StartChar: quotedblleft
Encoding: 256 8220 68
Width: 735
VWidth: 2457
Flags: W
HStem: 1154.68 417.74
VStem: 117 147.456<1277.5 1441.49> 411.912 147.455<1277.5 1441.49>
LayerCount: 2
Fore
SplineSet
264.456054688 1154.67578125 m 1
 117 1154.67578125 l 1
 117 1150.9296875 117 1277.50195312 117 1277.50195312 c 2
 117 1523.26269531 313.607421875 1572.41601562 313.607421875 1572.41601562 c 1
 362.759765625 1498.6875 l 1
 362.759765625 1498.6875 264.456054688 1449.53320312 264.456054688 1277.50195312 c 2
 264.456054688 1277.50195312 264.456054688 1150.9296875 264.456054688 1154.67578125 c 1
559.3671875 1154.67578125 m 1
 411.912109375 1154.67578125 l 1
 411.912109375 1150.9296875 411.912109375 1277.50195312 411.912109375 1277.50195312 c 2
 411.912109375 1523.26269531 608.51953125 1572.41601562 608.51953125 1572.41601562 c 1
 657.671875 1498.6875 l 1
 657.671875 1498.6875 559.3671875 1449.53320312 559.3671875 1277.50195312 c 2
 559.3671875 1277.50195312 559.3671875 1150.9296875 559.3671875 1154.67578125 c 1
EndSplineSet
EndChar

StartChar: quotedblright
Encoding: 257 8221 69
Width: 734
VWidth: 2457
Flags: W
HStem: 1154.59 417.742
VStem: 174.304 147.456<1285.52 1449.5> 469.216 147.456<1285.52 1449.5>
LayerCount: 2
Fore
SplineSet
469.215820312 1572.33398438 m 1
 616.671875 1572.33398438 l 1
 616.671875 1576.07617188 616.671875 1449.50390625 616.671875 1449.50390625 c 2
 616.671875 1203.74414062 420.063476562 1154.59179688 420.063476562 1154.59179688 c 1
 370.912109375 1228.31933594 l 1
 370.912109375 1228.31933594 469.215820312 1277.47167969 469.215820312 1449.50390625 c 2
 469.215820312 1449.50390625 469.215820312 1576.07617188 469.215820312 1572.33398438 c 1
174.303710938 1572.33398438 m 1
 321.759765625 1572.33398438 l 1
 321.759765625 1576.07617188 321.759765625 1449.50390625 321.759765625 1449.50390625 c 2
 321.759765625 1203.74414062 125.15234375 1154.59179688 125.15234375 1154.59179688 c 1
 76 1228.31933594 l 1
 76 1228.31933594 174.303710938 1277.47167969 174.303710938 1449.50390625 c 2
 174.303710938 1449.50390625 174.303710938 1576.07617188 174.303710938 1572.33398438 c 1
EndSplineSet
EndChar

StartChar: quoteleft
Encoding: 258 8216 70
Width: 471
VWidth: 2457
Flags: W
HStem: 1154.68 417.74
VStem: 126 147.456<1277.5 1441.49>
LayerCount: 2
Fore
SplineSet
273.456054688 1154.67578125 m 1
 126 1154.67578125 l 1
 126 1150.9296875 126 1277.50195312 126 1277.50195312 c 2
 126 1523.26269531 322.607421875 1572.41601562 322.607421875 1572.41601562 c 1
 371.759765625 1498.6875 l 1
 371.759765625 1498.6875 273.456054688 1449.53320312 273.456054688 1277.50195312 c 2
 273.456054688 1277.50195312 273.456054688 1150.9296875 273.456054688 1154.67578125 c 1
EndSplineSet
EndChar

StartChar: quoteright
Encoding: 259 8217 71
Width: 465
VWidth: 2457
Flags: W
HStem: 1154.59 417.742
VStem: 186.304 147.456<1285.52 1449.5>
LayerCount: 2
Fore
SplineSet
186.303710938 1572.33398438 m 1
 333.759765625 1572.33398438 l 1
 333.759765625 1576.07617188 333.759765625 1449.50390625 333.759765625 1449.50390625 c 2
 333.759765625 1203.74414062 137.15234375 1154.59179688 137.15234375 1154.59179688 c 1
 88 1228.31933594 l 1
 88 1228.31933594 186.303710938 1277.47167969 186.303710938 1449.50390625 c 2
 186.303710938 1449.50390625 186.303710938 1576.07617188 186.303710938 1572.33398438 c 1
EndSplineSet
EndChar

StartChar: quotedbl
Encoding: 34 34 72
Width: 731
VWidth: 0
Flags: W
HStem: 1179.17 393.166
VStem: 148 147.456<1179.24 1474.08> 442.912 147.455<1179.24 1474.08>
LayerCount: 2
Fore
SplineSet
148 1572.33398438 m 1
 295.456054688 1572.33398438 l 1
 295.456054688 1576.07617188 295.456054688 1474.08007812 295.456054688 1474.08007812 c 2
 295.456054688 1277.47167969 258.591796875 1179.16796875 258.591796875 1179.16796875 c 1
 184.86328125 1179.16796875 l 1
 184.86328125 1179.16796875 148 1277.47167969 148 1474.08007812 c 2
 148 1474.08007812 148 1576.07617188 148 1572.33398438 c 1
442.912109375 1572.33398438 m 1
 590.3671875 1572.33398438 l 1
 590.3671875 1576.07617188 590.3671875 1474.08007812 590.3671875 1474.08007812 c 2
 590.3671875 1277.47167969 553.50390625 1179.16796875 553.50390625 1179.16796875 c 1
 479.776367188 1179.16796875 l 1
 479.776367188 1179.16796875 442.912109375 1277.47167969 442.912109375 1474.08007812 c 2
 442.912109375 1474.08007812 442.912109375 1576.07617188 442.912109375 1572.33398438 c 1
EndSplineSet
EndChar

StartChar: quotesingle
Encoding: 39 39 73
Width: 436
VWidth: 2457
Flags: W
HStem: 1179.17 393.166
VStem: 148 147.456<1179.24 1474.08>
LayerCount: 2
Fore
SplineSet
148 1572.33398438 m 1
 295.456054688 1572.33398438 l 1
 295.456054688 1576.07617188 295.456054688 1474.08007812 295.456054688 1474.08007812 c 2
 295.456054688 1277.47167969 258.591796875 1179.16796875 258.591796875 1179.16796875 c 1
 184.86328125 1179.16796875 l 1
 184.86328125 1179.16796875 148 1277.47167969 148 1474.08007812 c 2
 148 1474.08007812 148 1576.07617188 148 1572.33398438 c 1
EndSplineSet
EndChar

StartChar: semicolon
Encoding: 59 59 74
Width: 466
VWidth: 2457
Flags: W
HStem: 835.218 196.444<171.016 343.048>
VStem: 183.304 147.456<-90.7364 73.248 73.3398 196.079 835.108 1031.66>
LayerCount: 2
Fore
SplineSet
183.303710938 196.079101562 m 1
 330.759765625 196.079101562 l 1
 330.759765625 199.818359375 330.759765625 73.248046875 330.759765625 73.248046875 c 2
 330.759765625 -172.51171875 134.15234375 -221.6640625 134.15234375 -221.6640625 c 1
 85 -147.936523438 l 1
 85 -147.936523438 183.303710938 -98.7841796875 183.303710938 73.248046875 c 2
 183.303710938 73.248046875 183.303710938 199.818359375 183.303710938 196.079101562 c 1
171.015625 1031.66210938 m 1
 343.047851562 1031.66210938 l 1
 343.047851562 1035.40332031 343.047851562 829.604492188 343.047851562 835.217773438 c 1
 171.015625 835.217773438 l 1
 171.015625 829.604492188 171.015625 1035.40332031 171.015625 1031.66210938 c 1
EndSplineSet
EndChar

StartChar: colon
Encoding: 58 58 75
Width: 460
VWidth: 2457
Flags: W
HStem: -0.367188 196.446<157 329.032> 835.218 196.444<157 329.032>
VStem: 157 172.032
LayerCount: 2
Fore
SplineSet
157 196.079101562 m 1
 329.032226562 196.079101562 l 1
 329.032226562 199.818359375 329.032226562 -5.98046875 329.032226562 -0.3671875 c 1
 157 -0.3671875 l 1
 157 -5.98046875 157 199.818359375 157 196.079101562 c 1
157 1031.66210938 m 1
 329.032226562 1031.66210938 l 1
 329.032226562 1035.40332031 329.032226562 829.604492188 329.032226562 835.217773438 c 1
 157 835.217773438 l 1
 157 829.604492188 157 1035.40332031 157 1031.66210938 c 1
EndSplineSet
EndChar

StartChar: asterisk
Encoding: 42 42 76
Width: 828
VWidth: 2457
Flags: W
HStem: 1454.08 20G<341.106 488.562>
VStem: 80.0049 669.662
LayerCount: 2
Fore
SplineSet
488.5625 1474.08007812 m 1
 470.92578125 1227.16992188 l 1
 675.938476562 1365.89648438 l 1
 749.666992188 1238.19921875 l 1
 527.017578125 1130.015625 l 1
 749.666992188 1021.83300781 l 1
 675.938476562 894.135742188 l 1
 470.92578125 1032.86230469 l 1
 488.5625 785.952148438 l 1
 341.106445312 785.952148438 l 1
 358.7421875 1032.86230469 l 1
 153.732421875 894.135742188 l 1
 80.0048828125 1021.83300781 l 1
 302.651367188 1130.015625 l 1
 80 1238.19921875 l 1
 153.728515625 1365.89648438 l 1
 358.743164062 1227.16992188 l 1
 341.106445312 1474.08007812 l 1
 488.5625 1474.08007812 l 1
EndSplineSet
EndChar

StartChar: plus
Encoding: 43 43 77
Width: 970
VWidth: 2457
Flags: W
HStem: 454.177 172.031<68 399.776 571.808 903.584>
VStem: 399.776 172.031<122.4 454.177 626.208 957.984>
LayerCount: 2
Fore
SplineSet
399.776367188 957.984375 m 1
 571.807617188 957.984375 l 1
 571.807617188 626.208007812 l 1
 903.583984375 626.208007812 l 1
 903.583984375 454.176757812 l 1
 571.807617188 454.176757812 l 1
 571.807617188 122.400390625 l 1
 399.776367188 122.400390625 l 1
 399.776367188 454.176757812 l 1
 68 454.176757812 l 1
 68 626.208007812 l 1
 399.776367188 626.208007812 l 1
 399.776367188 957.984375 l 1
EndSplineSet
EndChar

StartChar: equal
Encoding: 61 61 78
Width: 1179
VWidth: 2457
Flags: W
HStem: 159.264 172.032<99 1082.04> 650.784 172.031<99 1082.04>
LayerCount: 2
Fore
SplineSet
99 822.815429688 m 1
 1082.04003906 822.815429688 l 1
 1082.04003906 650.784179688 l 1
 99 650.784179688 l 1
 99 822.815429688 l 1
99 331.295898438 m 1
 1082.04003906 331.295898438 l 1
 1082.04003906 159.263671875 l 1
 99 159.263671875 l 1
 99 331.295898438 l 1
EndSplineSet
EndChar

StartChar: asciicircum
Encoding: 94 94 79
Width: 822
VWidth: 2457
Flags: W
HStem: 933.408 540.672
VStem: 105 614.4
LayerCount: 2
Fore
SplineSet
105 982.559570312 m 1
 326.184570312 1474.08007812 l 1
 498.215820312 1474.08007812 l 1
 719.400390625 982.559570312 l 1
 596.51953125 933.408203125 l 1
 412.200195312 1302.04785156 l 1
 227.880859375 933.408203125 l 1
 105 982.559570312 l 1
EndSplineSet
EndChar

StartChar: hyphen
Encoding: 45 45 80
Width: 1136
VWidth: 2457
Flags: W
HStem: 454.177 172.031<150 985.584>
LayerCount: 2
Fore
SplineSet
150 626.208007812 m 1
 985.583984375 626.208007812 l 1
 985.583984375 454.176757812 l 1
 150 454.176757812 l 1
 150 626.208007812 l 1
EndSplineSet
EndChar

StartChar: less
Encoding: 60 60 81
Width: 1179
VWidth: 2948
Flags: W
LayerCount: 2
Fore
SplineSet
1036.88867188 1080.86328125 m 1
 1086.04003906 933.408203125 l 1
 281.734375 491.040039062 l 1
 1086.04003906 48.671875 l 1
 1036.88867188 -98.7841796875 l 1
 103 392.736328125 l 1
 103 589.34375 l 1
 1036.88867188 1080.86328125 l 1
EndSplineSet
EndChar

StartChar: greater
Encoding: 62 62 82
Width: 1179
VWidth: 2948
Flags: W
LayerCount: 2
Fore
SplineSet
142.15234375 1080.86328125 m 1
 1076.04003906 589.34375 l 1
 1076.04003906 392.736328125 l 1
 142.15234375 -98.7841796875 l 1
 93 48.671875 l 1
 897.303710938 491.040039062 l 1
 93 933.408203125 l 1
 142.15234375 1080.86328125 l 1
EndSplineSet
EndChar

StartChar: underscore
Encoding: 95 95 83
Width: 1283
VWidth: 2457
Flags: W
HStem: -184.8 172.032<150 1133.04>
LayerCount: 2
Fore
SplineSet
150 -12.767578125 m 1
 1133.04003906 -12.767578125 l 1
 1133.04003906 -184.799804688 l 1
 150 -184.799804688 l 1
 150 -12.767578125 l 1
EndSplineSet
EndChar

StartChar: bar
Encoding: 124 124 84
Width: 472
VWidth: 2457
Flags: W
VStem: 150 172.032<-442.848 1916.45>
LayerCount: 2
Fore
SplineSet
322.032226562 1916.44824219 m 1
 322.032226562 -442.84765625 l 1
 150 -442.84765625 l 1
 150 1916.44824219 l 1
 322.032226562 1916.44824219 l 1
EndSplineSet
EndChar

StartChar: zero
Encoding: 48 48 85
Width: 1271
VWidth: 2457
Flags: W
HStem: -25.0557 147.456<498.115 793.229> 1351.2 147.456<498.115 793.229>
VStem: 105 172.032<446.942 1026.66> 1014.31 172.032<446.942 1026.66>
LayerCount: 2
Fore
SplineSet
105 736.799804688 m 0
 105 1056.28808594 252.456054688 1498.65625 645.671875 1498.65625 c 0
 1038.88867188 1498.65625 1186.34375 1056.28808594 1186.34375 736.799804688 c 0
 1186.34375 417.311523438 1038.88867188 -25.0556640625 645.671875 -25.0556640625 c 0
 252.456054688 -25.0556640625 105 417.311523438 105 736.799804688 c 0
645.671875 1351.20019531 m 0
 350.759765625 1351.20019531 277.032226562 933.408203125 277.032226562 736.799804688 c 0
 277.032226562 540.192382812 350.759765625 122.400390625 645.671875 122.400390625 c 0
 940.583984375 122.400390625 1014.31152344 540.192382812 1014.31152344 736.799804688 c 0
 1014.31152344 933.408203125 940.583984375 1351.20019531 645.671875 1351.20019531 c 0
EndSplineSet
EndChar

StartChar: one
Encoding: 49 49 86
Width: 722
VWidth: 2457
Flags: W
HStem: -0.480469 21G<404.641 576.672> 1454.08 20G<397.126 576.672>
VStem: 404.641 172.031<-0.480469 1277.47>
LayerCount: 2
Fore
SplineSet
404.640625 -0.48046875 m 1
 404.640625 1277.47167969 l 1
 85.15234375 1203.74414062 l 1
 36 1326.62304688 l 1
 453.791992188 1474.08007812 l 1
 576.671875 1474.08007812 l 1
 576.671875 -0.48046875 l 1
 404.640625 -0.48046875 l 1
EndSplineSet
EndChar

StartChar: two
Encoding: 50 50 87
Width: 1098
VWidth: 2457
Flags: W
HStem: -0.480469 172.032<247.032 1033.46> 1326.62 172.033<372.741 712.406>
VStem: 75 172.032<171.552 348.135> 836.855 172.033<875.712 1200.7>
LayerCount: 2
Fore
SplineSet
1033.46386719 -0.48046875 m 1
 75 -0.48046875 l 1
 75 171.551757812 l 2
 75 392.736328125 197.880859375 572.4453125 517.3671875 712.223632812 c 0
 543.30078125 723.568359375 569.350585938 734.1796875 594.94921875 744.610351562 c 0
 748.540039062 807.185546875 836.85546875 863.1953125 836.85546875 1031.71191406 c 0
 836.85546875 1228.31933594 713.9765625 1326.62304688 541.944335938 1326.62304688 c 0
 384.901367188 1326.62304688 272.9140625 1244.70214844 250.30859375 1080.86328125 c 1
 91.95703125 1160.38671875 l 1
 151.556640625 1376.04101562 334.462890625 1498.65625 541.944335938 1498.65625 c 0
 787.704101562 1498.65625 1008.88867188 1326.62304688 1008.88867188 1031.71191406 c 0
 1008.88867188 757.974609375 846.303710938 674.799804688 619.36328125 585.65234375 c 0
 601.811523438 578.755859375 584.166015625 571.826171875 566.51953125 564.767578125 c 0
 409.782226562 502.07421875 247.032226562 392.736328125 247.032226562 171.551757812 c 1
 1033.46386719 171.551757812 l 1
 1033.46386719 -0.48046875 l 1
EndSplineSet
EndChar

StartChar: three
Encoding: 51 51 88
Width: 1090
VWidth: 2457
Flags: W
HStem: -25.0557 172.032<352.831 699.84> 663.071 147.457<324.336 648.142> 1326.62 172.033<344.565 660.158>
VStem: 766.704 172.032<918.138 1221.01> 840.433 172.031<272.44 551.179>
LayerCount: 2
Fore
SplineSet
766.704101562 1056.28808594 m 0xf0
 766.704101562 1252.89648438 643.823242188 1326.62304688 496.3671875 1326.62304688 c 0
 348.912109375 1326.62304688 250.607421875 1228.31933594 226.033203125 1105.44042969 c 1
 78.576171875 1179.16796875 l 2
 126.118164062 1357.49609375 299.759765625 1498.65625 496.3671875 1498.65625 c 0
 791.280273438 1498.65625 938.736328125 1302.04785156 938.736328125 1056.28808594 c 0xf0
 938.736328125 810.528320312 766.704101562 736.799804688 717.551757812 736.799804688 c 1
 742.12890625 736.799804688 l 2
 791.280273438 736.799804688 1012.46386719 687.6484375 1012.46386719 417.311523438 c 0
 1012.46386719 146.9765625 766.704101562 -25.0556640625 520.944335938 -25.0556640625 c 0
 306.842773438 -25.0556640625 95.99609375 111.434570312 54 319.0078125 c 1
 201.456054688 368.16015625 l 1
 250.607421875 196.12890625 430.387695312 146.9765625 520.944335938 146.9765625 c 0
 619.248046875 146.9765625 840.432617188 196.12890625 840.432617188 417.311523438 c 0xe8
 840.432617188 638.49609375 594.671875 663.071289062 496.3671875 663.071289062 c 2
 275.184570312 663.071289062 l 1
 324.3359375 810.528320312 l 1
 496.3671875 810.528320312 l 2
 570.095703125 810.528320312 766.704101562 859.680664062 766.704101562 1056.28808594 c 0xf0
EndSplineSet
EndChar

StartChar: four
Encoding: 52 52 89
Width: 1107
VWidth: 2457
Flags: W
HStem: -0.480469 21G<725.977 898.008> 343.584 172.031<308.185 725.977 898.008 1020.89> 1454.08 20G<713.294 898.008>
VStem: 725.977 172.031<-0.480469 343.584 515.615 1179.17>
LayerCount: 2
Fore
SplineSet
87 466.463867188 m 1
 725.9765625 1474.08007812 l 1
 898.0078125 1474.08007812 l 1
 898.0078125 515.615234375 l 1
 1070.04003906 515.615234375 l 1
 1020.88867188 343.583984375 l 1
 898.0078125 343.583984375 l 1
 898.0078125 -0.48046875 l 1
 725.9765625 -0.48046875 l 1
 725.9765625 343.583984375 l 1
 87 343.583984375 l 1
 87 466.463867188 l 1
725.9765625 515.615234375 m 1
 725.9765625 1179.16796875 l 1
 308.184570312 515.615234375 l 1
 725.9765625 515.615234375 l 1
EndSplineSet
EndChar

StartChar: five
Encoding: 53 53 90
Width: 1169
VWidth: 2457
Flags: W
HStem: -25.0557 172.032<442.345 759.867> 835.104 172.033<381.559 746.233> 1302.05 172.032<326.185 965.16>
VStem: 916.008 172.032<308.114 663.56>
LayerCount: 2
Fore
SplineSet
965.16015625 1302.04785156 m 1
 326.184570312 1302.04785156 l 1
 277.032226562 884.255859375 l 1
 277.032226562 884.255859375 375.3359375 1007.13671875 571.944335938 1007.13671875 c 0
 768.551757812 1007.13671875 1088.04003906 859.680664062 1088.04003906 491.040039062 c 0
 1088.04003906 122.400390625 842.280273438 -25.0556640625 596.51953125 -25.0556640625 c 0
 392.765625 -25.0556640625 168.69921875 151.557617188 105 343.583984375 c 1
 252.456054688 417.311523438 l 1
 291.403320312 294.432617188 425.084960938 146.9765625 596.51953125 146.9765625 c 0
 793.12890625 146.9765625 916.0078125 294.432617188 916.0078125 491.040039062 c 0
 916.0078125 687.6484375 768.551757812 835.103515625 571.944335938 835.103515625 c 0
 326.184570312 835.103515625 252.456054688 663.071289062 252.456054688 663.071289062 c 1
 105 712.223632812 l 1
 178.728515625 1474.08007812 l 1
 1014.31152344 1474.08007812 l 1
 965.16015625 1302.04785156 l 1
EndSplineSet
EndChar

StartChar: six
Encoding: 54 54 91
Width: 1220
VWidth: 2457
Flags: W
HStem: -25.0557 147.456<494.051 810.057> 810.528 147.456<482.996 820.474> 1326.62 172.033<486.123 849.082>
VStem: 109 172.032<687.648 1067.95> 969.16 172.032<304.47 491.04>
LayerCount: 2
Fore
SplineSet
674.248046875 1498.65625 m 0
 874.84765625 1498.65625 1036.06054688 1383.52734375 1121.79199219 1228.31933594 c 2
 988.32421875 1130.015625 l 1
 932.493164062 1253.31933594 816.995117188 1326.62304688 674.248046875 1326.62304688 c 0
 313.478515625 1326.62304688 281.032226562 1007.13671875 281.032226562 687.6484375 c 1
 330.184570312 835.103515625 477.640625 957.984375 674.248046875 957.984375 c 0
 969.16015625 957.984375 1141.19238281 697.05078125 1141.19238281 475.8671875 c 0
 1141.19238281 303.833984375 1042.88867188 -25.0556640625 649.671875 -25.0556640625 c 0
 256.456054688 -25.0556640625 109 368.16015625 109 687.6484375 c 0
 109 1007.13671875 182.728515625 1498.65625 674.248046875 1498.65625 c 0
969.16015625 491.040039062 m 2
 969.16015625 491.040039062 969.16015625 810.528320312 649.671875 810.528320312 c 0
 474.5859375 810.528320312 388.0703125 710.021484375 345.630859375 619.169921875 c 0
 303.688476562 529.377929688 311.401367188 424.252929688 353.284179688 334.436523438 c 0
 408.41015625 216.216796875 500.896484375 122.400390625 649.671875 122.400390625 c 0
 944.583984375 122.400390625 969.16015625 441.888671875 969.16015625 491.040039062 c 2
EndSplineSet
EndChar

StartChar: seven
Encoding: 55 55 92
Width: 1121
VWidth: 2457
Flags: W
HStem: -0.480469 21G<191.456 398.245> 1302.05 172.032<44 855.008>
LayerCount: 2
Fore
SplineSet
191.456054688 -0.48046875 m 1
 855.0078125 1302.04785156 l 1
 44 1302.04785156 l 1
 44 1474.08007812 l 1
 1076.19238281 1474.08007812 l 1
 1076.19238281 1351.20019531 l 1
 388.063476562 -0.48046875 l 1
 191.456054688 -0.48046875 l 1
EndSplineSet
EndChar

StartChar: eight
Encoding: 56 56 93
Width: 1212
VWidth: 2457
Flags: W
HStem: -25.0557 172.032<433.724 796.468> 712.224 147.457<320.185 910.008> 1326.62 172.033<446.111 784.081>
VStem: 99 172.032<293.556 563.295> 148.152 172.032<971.378 1214.53> 910.008 172.032<971.378 1214.53> 959.16 172.032<295.416 562.482>
LayerCount: 2
Fore
SplineSet
99 417.311523438 m 0xf2
 99 638.49609375 320.184570312 859.680664062 615.095703125 859.680664062 c 0
 910.0078125 859.680664062 1131.19238281 687.6484375 1131.19238281 417.311523438 c 0
 1131.19238281 146.9765625 910.0078125 -25.0556640625 615.095703125 -25.0556640625 c 0
 320.184570312 -25.0556640625 99 196.12890625 99 417.311523438 c 0xf2
615.095703125 712.223632812 m 0
 418.48828125 712.223632812 271.032226562 577.055664062 271.032226562 429.599609375 c 0
 271.032226562 282.14453125 418.48828125 146.9765625 615.095703125 146.9765625 c 0
 811.704101562 146.9765625 959.16015625 282.14453125 959.16015625 429.599609375 c 0
 959.16015625 577.055664062 811.704101562 712.223632812 615.095703125 712.223632812 c 0
148.15234375 1105.44042969 m 0xec
 148.15234375 1277.47167969 320.184570312 1498.65625 615.095703125 1498.65625 c 0
 910.0078125 1498.65625 1082.04003906 1277.47167969 1082.04003906 1105.44042969 c 0
 1082.04003906 933.408203125 910.0078125 712.223632812 615.095703125 712.223632812 c 0
 320.184570312 712.223632812 148.15234375 933.408203125 148.15234375 1105.44042969 c 0xec
615.095703125 859.680664062 m 0
 811.704101562 859.680664062 910.0078125 994.84765625 910.0078125 1093.15234375 c 0
 910.0078125 1191.45605469 811.704101562 1326.62304688 615.095703125 1326.62304688 c 0
 418.48828125 1326.62304688 320.184570312 1191.45605469 320.184570312 1093.15234375 c 0
 320.184570312 994.84765625 418.48828125 859.680664062 615.095703125 859.680664062 c 0
EndSplineSet
EndChar

StartChar: nine
Encoding: 57 57 94
Width: 1207
VWidth: 2457
Flags: W
HStem: -25.0557 172.032<378.11 741.07> 515.615 147.456<406.718 744.196> 1351.2 147.456<417.134 733.142>
VStem: 86 172.032<982.56 1169.13> 946.16 172.032<405.648 785.952>
LayerCount: 2
Fore
SplineSet
552.944335938 -25.0556640625 m 0
 352.344726562 -25.0556640625 191.12890625 90.072265625 105.3984375 245.280273438 c 2
 238.869140625 343.583984375 l 1
 294.697265625 220.28125 410.19921875 146.9765625 552.944335938 146.9765625 c 0
 913.71484375 146.9765625 946.16015625 466.463867188 946.16015625 785.952148438 c 1
 897.0078125 638.49609375 749.551757812 515.615234375 552.944335938 515.615234375 c 0
 258.032226562 515.615234375 86 776.548828125 86 997.733398438 c 0
 86 1169.765625 184.303710938 1498.65625 577.51953125 1498.65625 c 0
 970.736328125 1498.65625 1118.19238281 1105.44042969 1118.19238281 785.952148438 c 0
 1118.19238281 466.463867188 1044.46386719 -25.0556640625 552.944335938 -25.0556640625 c 0
258.032226562 982.559570312 m 2
 258.032226562 982.559570312 258.032226562 663.071289062 577.51953125 663.071289062 c 0
 752.604492188 663.071289062 839.122070312 763.578125 881.55859375 854.430664062 c 0
 923.505859375 944.221679688 915.7890625 1049.34765625 873.90625 1139.16308594 c 0
 818.783203125 1257.3828125 726.298828125 1351.20019531 577.51953125 1351.20019531 c 0
 282.607421875 1351.20019531 258.032226562 1031.71191406 258.032226562 982.559570312 c 2
EndSplineSet
EndChar

StartChar: asciitilde
Encoding: 126 126 95
Width: 1209
VWidth: 2457
Flags: W
HStem: 736.8 221.185<684.966 948.686> 884.256 221.185<283.45 555.225>
LayerCount: 2
Fore
SplineSet
1111.61523438 1080.86328125 m 5x80
 1111.61523438 859.680664062 l 5
 1111.61523438 859.680664062 934.3203125 736.799804688 792.12890625 736.799804688 c 4x80
 649.936523438 736.799804688 542.856445312 884.255859375 448.063476562 884.255859375 c 4
 353.270507812 884.255859375 104 761.376953125 104 761.376953125 c 5
 104 982.559570312 l 5
 104 982.559570312 305.874023438 1105.44042969 448.063476562 1105.44042969 c 4x40
 590.25390625 1105.44042969 697.333007812 957.984375 792.12890625 957.984375 c 4
 886.922851562 957.984375 1111.61523438 1080.86328125 1111.61523438 1080.86328125 c 5x80
EndSplineSet
EndChar

StartChar: grave
Encoding: 96 96 96
Width: 455
VWidth: 2457
Flags: W
HStem: 1228.32 344.065
VStem: 38 344.063
LayerCount: 2
Fore
SplineSet
234.607421875 1228.31933594 m 5
 38 1572.38476562 l 5
 234.607421875 1572.38476562 l 5
 382.063476562 1228.31933594 l 5
 234.607421875 1228.31933594 l 5
EndSplineSet
EndChar

StartChar: at
Encoding: 64 64 97
Width: 1994
VWidth: 2457
Flags: W
HStem: -393.696 147.456<745.538 1316> -25.0557 147.456<832.976 1112.36 1463.72 1608.28> 908.832 147.456<832.976 1112.36> 1011.71 20G<1311.65 1439.53> 1302.05 147.456<768.847 1270.67>
VStem: 137 147.455<239.791 800.426> 505.64 172.031<303.579 727.653> 1267.5 49.1514<245.28 785.952> 1316.65 122.881<974.367 1031.71> 1709.86 147.456<278.027 836.807>
LayerCount: 2
Fore
SplineSet
1439.52832031 1031.71191406 m 1xdec0
 1439.52832031 245.280273438 l 2xdec0
 1439.52832031 185.029296875 1476.39160156 122.400390625 1537.83203125 122.400390625 c 0
 1599.27148438 122.400390625 1709.86328125 245.280273438 1709.86328125 589.34375 c 0
 1709.86328125 920.72265625 1482.53613281 1302.04785156 1021.73632812 1302.04785156 c 0
 560.935546875 1302.04785156 284.455078125 931.8203125 284.455078125 540.192382812 c 0
 284.455078125 148.563476562 481.063476562 -246.240234375 1021.73632812 -246.240234375 c 0
 1267.49609375 -246.240234375 1464.10351562 -147.936523438 1464.10351562 -147.936523438 c 1
 1513.25585938 -270.815429688 l 1
 1513.25585938 -270.815429688 1328.93554688 -393.696289062 1021.73632812 -393.696289062 c 0
 345.895507812 -393.696289062 137 88.3134765625 137 540.192382812 c 0
 137 893.766601562 376.615234375 1449.50390625 1021.73632812 1449.50390625 c 0
 1666.85546875 1449.50390625 1857.31933594 890.596679688 1857.31933594 589.34375 c 0
 1857.31933594 189.787109375 1734.43945312 -25.0556640625 1537.83203125 -25.0556640625 c 0
 1292.07128906 -25.0556640625 1267.49609375 153.31640625 1267.49609375 245.280273438 c 2
 1267.49609375 835.103515625 l 1xdf40
 1316.64746094 1031.71191406 l 1
 1439.52832031 1031.71191406 l 1xdec0
505.639648438 515.615234375 m 0
 505.639648438 785.952148438 677.670898438 1056.28808594 972.583984375 1056.28808594 c 0
 1267.49609375 1056.28808594 1316.64746094 785.952148438 1316.64746094 515.615234375 c 0xef40
 1316.64746094 245.280273438 1267.49609375 -25.0556640625 972.583984375 -25.0556640625 c 0
 677.670898438 -25.0556640625 505.639648438 245.280273438 505.639648438 515.615234375 c 0
972.583984375 908.83203125 m 0
 800.551757812 908.83203125 677.670898438 736.799804688 677.670898438 515.615234375 c 0
 677.670898438 294.432617188 800.551757812 122.400390625 972.583984375 122.400390625 c 0
 1144.61523438 122.400390625 1267.49609375 294.432617188 1267.49609375 515.615234375 c 0
 1267.49609375 736.799804688 1144.61523438 908.83203125 972.583984375 908.83203125 c 0
EndSplineSet
EndChar

StartChar: dieresis
Encoding: 168 168 99
Width: 841
VWidth: 2457
Flags: HW
LayerCount: 2
Fore
SplineSet
150 1375.72753906 m 5
 322.032226562 1375.72753906 l 5
 322.032226562 1379.46679688 322.032226562 1173.66796875 322.032226562 1179.28125 c 5
 150 1179.28125 l 5
 150 1173.66796875 150 1379.46679688 150 1375.72753906 c 5
518.640625 1375.72753906 m 5
 690.671875 1375.72753906 l 5
 690.671875 1379.46679688 690.671875 1173.66796875 690.671875 1179.28125 c 5
 518.640625 1179.28125 l 5
 518.640625 1173.66796875 518.640625 1379.46679688 518.640625 1375.72753906 c 5
EndSplineSet
EndChar

StartChar: exclamdown
Encoding: 161 161 100
Width: 470
VWidth: 2457
Flags: HW
LayerCount: 2
Fore
SplineSet
328.032226562 1277.36816406 m 5
 156 1277.36816406 l 5
 156 1273.62890625 156 1479.42773438 156 1473.81445312 c 5
 328.032226562 1473.81445312 l 5
 328.032226562 1479.42773438 328.032226562 1273.62890625 328.032226562 1277.36816406 c 5
328.032226562 -0.3671875 m 5
 156 -0.3671875 l 5
 156 -20.0126953125 156 1060.43652344 156 1030.96972656 c 5
 328.032226562 1030.96972656 l 5
 328.032226562 1060.43652344 328.032226562 -20.0126953125 328.032226562 -0.3671875 c 5
EndSplineSet
EndChar

StartChar: sterling
Encoding: 163 163 101
Width: 1174
VWidth: 2457
Flags: HW
LayerCount: 2
Fore
SplineSet
251.456054688 417.311523438 m 2
 251.456054688 540.192382812 l 1
 104 540.192382812 l 1
 104 712.223632812 l 1
 251.456054688 712.223632812 l 1
 251.456054688 982.559570312 l 2
 251.456054688 1277.47167969 448.063476562 1498.65625 669.248046875 1498.65625 c 0
 834.698242188 1498.65625 1023.33398438 1333.9921875 1087.04003906 1130.015625 c 1
 961.466796875 1031.71191406 l 1
 936.890625 1154.59179688 833.3515625 1326.62304688 669.248046875 1326.62304688 c 0
 484.928710938 1326.62304688 423.48828125 1130.015625 423.48828125 982.559570312 c 2
 423.48828125 712.223632812 l 1
 792.12890625 712.223632812 l 1
 792.12890625 540.192382812 l 1
 423.48828125 540.192382812 l 1
 423.48828125 417.311523438 l 2
 423.48828125 324.901367188 395.689453125 218.590820312 360.998046875 171.551757812 c 1
 1037.88867188 171.551757812 l 1
 1037.88867188 -0.48046875 l 1
 104 -0.48046875 l 1
 104 171.551757812 l 1
 153.15234375 171.551757812 l 2
 202.303710938 171.551757812 251.456054688 294.432617188 251.456054688 417.311523438 c 2
EndSplineSet
EndChar

StartChar: section
Encoding: 167 167 102
Width: 1186
VWidth: 2457
Flags: HW
LayerCount: 2
Fore
SplineSet
1060.88867188 564.767578125 m 0
 1060.88867188 511.728515625 1048.69335938 364.920898438 883.115234375 300.655273438 c 1
 955.909179688 249.075195312 1011.73632812 176.45703125 1011.73632812 73.248046875 c 0
 1011.73632812 -74.1875 942.102539062 -270.815429688 593.944335938 -270.815429688 c 0
 328.076171875 -270.815429688 176.15234375 -98.7841796875 176.15234375 -98.7841796875 c 1
 274.456054688 48.671875 l 1
 274.456054688 48.671875 404.038085938 -123.359375 593.944335938 -123.359375 c 0
 768.026367188 -123.359375 839.704101562 -29.8486328125 839.704101562 73.248046875 c 0
 839.704101562 176.34375 686.083984375 253.537109375 593.944335938 269.85546875 c 0
 590.357421875 270.490234375 586.491210938 271.159179688 582.372070312 271.87109375 c 0
 333.239257812 338.594726562 127 431.875976562 127 663.071289062 c 0
 127 716.111328125 139.197265625 862.919921875 304.771484375 927.185546875 c 1
 231.978515625 978.765625 176.15234375 1051.3828125 176.15234375 1154.59179688 c 0
 176.15234375 1302.02832031 245.783203125 1498.65625 593.944335938 1498.65625 c 0
 859.8125 1498.65625 1011.73632812 1326.62304688 1011.73632812 1326.62304688 c 1
 913.432617188 1179.16796875 l 1
 913.432617188 1179.16796875 783.84765625 1351.20019531 593.944335938 1351.20019531 c 0
 419.86328125 1351.20019531 348.184570312 1257.6875 348.184570312 1154.59179688 c 0
 348.184570312 1051.49511719 501.805664062 974.302734375 593.944335938 957.984375 c 0
 597.53125 957.350585938 601.397460938 956.681640625 605.516601562 955.96875 c 0
 854.646484375 889.244140625 1060.88867188 795.96484375 1060.88867188 564.767578125 c 0
658.795898438 400.103515625 m 0
 710.05078125 385.465820312 767.55859375 380.098632812 807.80859375 415.041015625 c 0
 857.919921875 458.541015625 888.85546875 522.72265625 888.85546875 564.767578125 c 0
 888.85546875 633.497070312 858.155273438 743.327148438 593.944335938 810.528320312 c 0
 592.684570312 810.84765625 591.40234375 811.171875 590.096679688 811.505859375 c 0
 573.060546875 815.8359375 552.23828125 821.125 529.091796875 827.736328125 c 0
 477.837890625 842.373046875 420.331054688 847.741210938 380.079101562 812.798828125 c 0
 329.969726562 769.299804688 299.032226562 705.1171875 299.032226562 663.071289062 c 0
 299.032226562 594.341796875 329.73046875 484.512695312 593.944335938 417.311523438 c 0
 595.203125 416.993164062 596.486328125 416.66796875 597.790039062 416.333984375 c 0
 614.827148438 412.002929688 635.650390625 406.71484375 658.795898438 400.103515625 c 0
EndSplineSet
EndChar

StartChar: copyright
Encoding: 169 169 103
Width: 1800
VWidth: 2457
Flags: HW
LayerCount: 2
Fore
SplineSet
310.032226562 736.799804688 m 0
 310.032226562 1062.59667969 574.059570312 1326.62304688 899.85546875 1326.62304688 c 0
 1225.65234375 1326.62304688 1489.68066406 1062.59667969 1489.68066406 736.799804688 c 0
 1489.68066406 411.00390625 1225.65234375 146.9765625 899.85546875 146.9765625 c 0
 574.059570312 146.9765625 310.032226562 411.00390625 310.032226562 736.799804688 c 0
138 736.799804688 m 0
 138 316.100585938 479.15625 -25.0556640625 899.85546875 -25.0556640625 c 0
 1320.55566406 -25.0556640625 1661.71191406 316.100585938 1661.71191406 736.799804688 c 0
 1661.71191406 1157.5 1320.55566406 1498.65625 899.85546875 1498.65625 c 0
 479.15625 1498.65625 138 1157.5 138 736.799804688 c 0
935.186523438 1179.16796875 m 0
 1043.23242188 1179.16796875 1130.98339844 1118.17480469 1194.76757812 1052.99511719 c 2
 1121.04003906 933.408203125 l 1
 1078.3125 992.243164062 1009.28808594 1031.71191406 935.186523438 1031.71191406 c 0
 795.408203125 1031.71191406 695.5703125 917.767578125 695.5703125 736.799804688 c 0
 695.5703125 555.83203125 795.408203125 441.888671875 935.186523438 441.888671875 c 0
 1009.28808594 441.888671875 1078.3125 481.357421875 1121.04003906 540.192382812 c 1
 1194.76757812 420.604492188 l 2
 1130.98339844 355.424804688 1043.23242188 294.432617188 935.186523438 294.432617188 c 0
 695.5703125 294.432617188 531.215820312 466.463867188 531.215820312 736.799804688 c 0
 531.215820312 1007.13671875 695.5703125 1179.16796875 935.186523438 1179.16796875 c 0
EndSplineSet
EndChar

StartChar: registered
Encoding: 174 174 104
Width: 1800
VWidth: 2457
Flags: HW
LayerCount: 2
Fore
SplineSet
310.032226562 736.799804688 m 0
 310.032226562 1062.59667969 574.059570312 1326.62304688 899.85546875 1326.62304688 c 0
 1225.65234375 1326.62304688 1489.68066406 1062.59667969 1489.68066406 736.799804688 c 0
 1489.68066406 411.00390625 1225.65234375 146.9765625 899.85546875 146.9765625 c 0
 574.059570312 146.9765625 310.032226562 411.00390625 310.032226562 736.799804688 c 0
138 736.799804688 m 0
 138 316.100585938 479.15625 -25.0556640625 899.85546875 -25.0556640625 c 0
 1320.55566406 -25.0556640625 1661.71191406 316.100585938 1661.71191406 736.799804688 c 0
 1661.71191406 1157.5 1320.55566406 1498.65625 899.85546875 1498.65625 c 0
 479.15625 1498.65625 138 1157.5 138 736.799804688 c 0
629.51953125 1154.59179688 m 1
 730.22265625 1154.59179688 l 1
 946.009765625 1154.59179688 l 2
 1089.86816406 1154.59179688 1219.34375 1035.80664062 1219.34375 896.543945312 c 0
 1219.34375 791.142578125 1128.69824219 701.6953125 1034.71875 664.428710938 c 1
 1268.49609375 319.0078125 l 1
 1096.46386719 319.0078125 l 1
 871.3671875 645.868164062 l 1
 801.551757812 645.868164062 l 1
 801.551757812 319.0078125 l 1
 629.51953125 319.0078125 l 1
 629.51953125 1154.59179688 l 1
801.551757812 785.952148438 m 1
 896.858398438 785.952148438 l 1
 897.796875 785.952148438 l 2
 941.55078125 785.947265625 1047.31152344 785.931640625 1047.31152344 896.543945312 c 0
 1047.31152344 1007.15039062 955.736328125 1007.140625 898.111328125 1007.13671875 c 2
 896.858398438 1007.13671875 l 1
 801.551757812 1007.13671875 l 1
 801.551757812 785.952148438 l 1
EndSplineSet
EndChar

StartChar: brokenbar
Encoding: 166 166 105
Width: 472
VWidth: 2457
Flags: HW
LayerCount: 2
Fore
SplineSet
322.032226562 1916.44824219 m 1
 322.032226562 884.255859375 l 1
 150 884.255859375 l 1
 150 1916.44824219 l 1
 322.032226562 1916.44824219 l 1
150 -442.84765625 m 1
 150 589.34375 l 1
 322.032226562 589.34375 l 1
 322.032226562 -442.84765625 l 1
 150 -442.84765625 l 1
EndSplineSet
EndChar

StartChar: acute
Encoding: 180 180 106
Width: 499
VWidth: 2457
Flags: HW
LayerCount: 2
Fore
SplineSet
226.456054688 1228.31933594 m 5
 79 1228.31933594 l 5
 226.456054688 1572.38476562 l 5
 423.063476562 1572.38476562 l 5
 226.456054688 1228.31933594 l 5
EndSplineSet
EndChar

StartChar: questiondown
Encoding: 191 191 107
Width: 1076
VWidth: 2457
Flags: HW
LayerCount: 2
Fore
SplineSet
619.51953125 1302.09765625 m 1
 447.48828125 1302.09765625 l 1
 447.48828125 1298.35644531 447.48828125 1504.15625 447.48828125 1498.54296875 c 1
 619.51953125 1498.54296875 l 1
 619.51953125 1504.15625 619.51953125 1298.35644531 619.51953125 1302.09765625 c 1
444.79296875 1130.015625 m 1
 616.82421875 1130.015625 l 1
 616.82421875 908.83203125 l 2
 616.82421875 798.240234375 533.880859375 742.944335938 450.9375 687.6484375 c 0
 367.993164062 632.3515625 300.032226562 527.904296875 300.032226562 417.311523438 c 0
 300.032226562 269.85546875 361.471679688 171.551757812 545.791992188 171.551757812 c 0
 709.895507812 171.551757812 813.434570312 294.432617188 838.010742188 417.311523438 c 1
 963.583984375 319.0078125 l 1
 899.877929688 115.032226562 708.548828125 -0.48046875 543.096679688 -0.48046875 c 0
 321.912109375 -0.48046875 128 122.400390625 128 417.311523438 c 0
 128 600.216796875 228.34765625 733.014648438 325.286132812 796.553710938 c 0
 333.666015625 802.043945312 342.061523438 807.38671875 350.30078125 812.631835938 c 0
 400.430664062 844.53125 444.79296875 872.759765625 444.79296875 908.83203125 c 2
 444.79296875 1130.015625 l 1
EndSplineSet
EndChar

StartChar: NameMe.260
Encoding: 260 768 109
Width: 455
VWidth: 2457
Flags: HW
LayerCount: 2
Fore
SplineSet
234.607421875 1228.31933594 m 5
 38 1572.38476562 l 5
 234.607421875 1572.38476562 l 5
 382.063476562 1228.31933594 l 5
 234.607421875 1228.31933594 l 5
EndSplineSet
EndChar

StartChar: NameMe.261
Encoding: 261 769 110
Width: 499
VWidth: 2457
Flags: HW
LayerCount: 2
Fore
SplineSet
226.456054688 1228.31933594 m 5
 79 1228.31933594 l 5
 226.456054688 1572.38476562 l 5
 423.063476562 1572.38476562 l 5
 226.456054688 1228.31933594 l 5
EndSplineSet
EndChar

StartChar: NameMe.262
Encoding: 262 770 114
Width: 838
VWidth: 2457
Flags: HW
LayerCount: 2
Fore
SplineSet
108 1179.16796875 m 1
 329.184570312 1670.68847656 l 1
 501.215820312 1670.68847656 l 1
 722.400390625 1179.16796875 l 1
 599.51953125 1130.015625 l 1
 415.200195312 1498.65625 l 1
 230.880859375 1130.015625 l 1
 108 1179.16796875 l 1
EndSplineSet
EndChar

StartChar: NameMe.263
Encoding: 263 771 115
Width: 880
VWidth: 2948
Flags: HW
LayerCount: 2
Fore
SplineSet
734.82421875 1523.23242188 m 1
 734.82421875 1351.20019531 l 1
 734.82421875 1351.20019531 680.407226562 1228.31933594 577.365234375 1228.31933594 c 0
 464.48828125 1228.31933594 362.672851562 1375.77636719 289.2578125 1375.77636719 c 0
 222.239257812 1375.77636719 145 1252.89648438 145 1252.89648438 c 1
 145 1424.92871094 l 1
 145 1424.92871094 199.41796875 1547.80761719 302.458984375 1547.80761719 c 0
 415.3359375 1547.80761719 517.149414062 1400.3515625 590.56640625 1400.3515625 c 0
 657.5859375 1400.3515625 734.82421875 1523.23242188 734.82421875 1523.23242188 c 1
EndSplineSet
EndChar

StartChar: NameMe.264
Encoding: 264 776 116
Width: 841
VWidth: 2457
Flags: HW
LayerCount: 2
Fore
SplineSet
150 1375.72753906 m 5
 322.032226562 1375.72753906 l 5
 322.032226562 1379.46679688 322.032226562 1173.66796875 322.032226562 1179.28125 c 5
 150 1179.28125 l 5
 150 1173.66796875 150 1379.46679688 150 1375.72753906 c 5
518.640625 1375.72753906 m 5
 690.671875 1375.72753906 l 5
 690.671875 1379.46679688 690.671875 1173.66796875 690.671875 1179.28125 c 5
 518.640625 1179.28125 l 5
 518.640625 1173.66796875 518.640625 1379.46679688 518.640625 1375.72753906 c 5
EndSplineSet
EndChar

StartChar: NameMe.265
Encoding: 265 778 118
Width: 923
VWidth: 2457
Flags: HW
LayerCount: 2
Fore
SplineSet
142 1351.20019531 m 0
 142 1572.38476562 264.880859375 1695.26367188 461.48828125 1695.26367188 c 0
 658.095703125 1695.26367188 780.9765625 1572.38476562 780.9765625 1351.20019531 c 0
 780.9765625 1130.015625 658.095703125 1007.13671875 461.48828125 1007.13671875 c 0
 264.880859375 1007.13671875 142 1130.015625 142 1351.20019531 c 0
461.48828125 1547.80761719 m 0
 387.759765625 1547.80761719 314.032226562 1474.08007812 314.032226562 1351.20019531 c 0
 314.032226562 1228.31933594 387.759765625 1154.59179688 461.48828125 1154.59179688 c 0
 535.215820312 1154.59179688 608.944335938 1228.31933594 608.944335938 1351.20019531 c 0
 608.944335938 1474.08007812 535.215820312 1547.80761719 461.48828125 1547.80761719 c 0
EndSplineSet
EndChar

StartChar: degree
Encoding: 176 176 163
Width: 922
VWidth: 2457
Flags: HW
LayerCount: 2
Fore
SplineSet
141 1203.74414062 m 0
 141 1424.92871094 263.880859375 1547.80761719 460.48828125 1547.80761719 c 0
 657.095703125 1547.80761719 779.9765625 1424.92871094 779.9765625 1203.74414062 c 0
 779.9765625 982.559570312 657.095703125 859.680664062 460.48828125 859.680664062 c 0
 263.880859375 859.680664062 141 982.559570312 141 1203.74414062 c 0
460.48828125 1400.3515625 m 0
 386.759765625 1400.3515625 313.032226562 1326.62304688 313.032226562 1203.74414062 c 0
 313.032226562 1080.86328125 386.759765625 1007.13671875 460.48828125 1007.13671875 c 0
 534.215820312 1007.13671875 607.944335938 1080.86328125 607.944335938 1203.74414062 c 0
 607.944335938 1326.62304688 534.215820312 1400.3515625 460.48828125 1400.3515625 c 0
EndSplineSet
EndChar
